<svg xmlns="http://www.w3.org/2000/svg" xmlns:xlink="http://www.w3.org/1999/xlink" width="336" zoomAndPan="magnify" viewBox="0 0 252 143.999998" height="192" preserveAspectRatio="xMidYMid meet" version="1.0"><defs><clipPath id="869f3b8d44"><path d="M 77.015625 23.015625 L 175.265625 23.015625 L 175.265625 121.265625 L 77.015625 121.265625 Z M 77.015625 23.015625 " clip-rule="nonzero"/></clipPath><clipPath id="f256a75507"><path d="M 117.132812 54.457031 L 135 54.457031 L 135 69.128906 L 117.132812 69.128906 Z M 117.132812 54.457031 " clip-rule="nonzero"/></clipPath><clipPath id="bd0ff5438e"><path d="M 121.554688 69.914062 L 130.726562 69.914062 L 130.726562 76.183594 L 121.554688 76.183594 Z M 121.554688 69.914062 " clip-rule="nonzero"/></clipPath><clipPath id="696615f69b"><path d="M 118.414062 48.28125 L 133.871094 48.28125 L 133.871094 58.910156 L 118.414062 58.910156 Z M 118.414062 48.28125 " clip-rule="nonzero"/></clipPath></defs><rect x="-25.2" width="302.4" fill="#ffffff" y="-14.4" height="172.799997" fill-opacity="1"/><rect x="-25.2" width="302.4" fill="#001719" y="-14.4" height="172.799997" fill-opacity="1"/><g clip-path="url(#869f3b8d44)"><path fill="#ffffff" d="M 67.191406 13.191406 L 185.089844 13.191406 L 185.089844 131.089844 L 67.191406 131.089844 Z M 67.191406 13.191406 " fill-opacity="1" fill-rule="nonzero"/><path fill="#001719" d="M 67.191406 13.191406 L 185.089844 13.191406 L 185.089844 131.089844 L 67.191406 131.089844 Z M 67.191406 13.191406 " fill-opacity="1" fill-rule="nonzero"/></g><g clip-path="url(#f256a75507)"><path fill="#f7f7f7" d="M 124.933594 69.09375 L 122.6875 69.09375 C 121.8125 65.765625 119.011719 64.703125 117.878906 61.316406 C 117.132812 59.085938 117.171875 56.710938 117.871094 54.625 C 119.015625 56.566406 121.160156 57.78125 123.398438 58.328125 C 125.296875 58.789062 125.9375 60.058594 126.140625 61.796875 C 126.347656 60.058594 126.984375 58.789062 128.886719 58.328125 C 131.125 57.78125 133.265625 56.566406 134.410156 54.625 C 135.113281 56.710938 135.148438 59.085938 134.402344 61.316406 C 133.269531 64.703125 130.46875 65.765625 129.59375 69.09375 L 127.347656 69.09375 C 127.894531 62.546875 132.039062 63.242188 132.800781 59.082031 C 130.113281 63.46875 126.859375 60.925781 126.140625 68.191406 C 125.421875 60.929688 122.167969 63.46875 119.480469 59.082031 C 120.246094 63.242188 124.386719 62.546875 124.933594 69.09375 Z M 124.933594 69.09375 " fill-opacity="1" fill-rule="evenodd"/></g><g clip-path="url(#bd0ff5438e)"><path fill="#51a0a2" d="M 130.667969 69.933594 L 121.617188 69.933594 L 121.617188 71.113281 C 121.617188 71.761719 122.222656 72.289062 122.960938 72.289062 L 122.976562 72.289062 L 122.976562 73.46875 C 122.976562 74.476562 125.429688 74.476562 126.292969 74.648438 L 124.527344 74.648438 L 124.527344 75.40625 C 124.527344 75.824219 124.917969 76.164062 125.390625 76.164062 L 126.890625 76.164062 C 127.367188 76.164062 127.753906 75.824219 127.753906 75.40625 L 127.753906 74.648438 L 127.964844 74.648438 C 128.703125 74.648438 129.304688 74.117188 129.304688 73.46875 L 129.308594 72.289062 L 127.507812 72.289062 C 128.378906 72.121094 130.667969 72.140625 130.667969 71.113281 Z M 130.667969 69.933594 " fill-opacity="1" fill-rule="evenodd"/></g><g clip-path="url(#696615f69b)"><path fill="#51a0a2" d="M 122.765625 56.425781 C 123.65625 55.628906 124.53125 53.644531 124.71875 52.726562 C 124.71875 52.714844 124.722656 52.703125 124.722656 52.691406 C 124.828125 52.160156 124.847656 51.523438 124.734375 50.757812 C 124.691406 50.484375 124.878906 50.230469 125.152344 50.191406 C 125.425781 50.152344 125.675781 50.335938 125.71875 50.609375 C 125.804688 51.171875 125.824219 51.679688 125.796875 52.140625 C 126.683594 51.957031 128.140625 51.84375 128.929688 52.78125 C 129.105469 52.988281 129.078125 53.304688 128.871094 53.480469 C 128.660156 53.65625 128.347656 53.628906 128.171875 53.417969 C 127.59375 52.734375 126.203125 53.035156 125.628906 53.199219 C 125.398438 54.367188 124.097656 56.582031 123.488281 57.308594 C 125.324219 57.824219 126.191406 58.789062 126.191406 58.789062 C 126.5625 58.292969 127.375 57.976562 128.214844 57.695312 C 128.257812 55.957031 127.484375 55.328125 127.480469 55.324219 C 127.285156 55.160156 127.261719 54.867188 127.425781 54.671875 C 127.59375 54.476562 127.886719 54.449219 128.082031 54.617188 C 128.085938 54.617188 129.082031 55.4375 129.144531 57.390625 C 129.574219 57.25 130.015625 57.09375 130.449219 56.898438 C 131.6875 56.351562 133.011719 55.371094 133.523438 54.199219 C 133.988281 53.140625 133.160156 52.34375 132.261719 52.011719 C 132.234375 52 132.203125 51.988281 132.175781 51.976562 C 131.921875 52.367188 131.523438 52.785156 130.914062 53.0625 C 130.664062 53.175781 130.371094 53.0625 130.253906 52.8125 C 130.144531 52.5625 130.253906 52.269531 130.503906 52.15625 C 131.1875 51.847656 131.460938 51.289062 131.566406 50.988281 C 131.566406 50.949219 131.570312 50.90625 131.578125 50.863281 C 131.613281 50.601562 131.550781 50.25 131.4375 50.015625 C 131.179688 49.492188 130.597656 49.292969 130.046875 49.222656 C 130.054688 49.742188 129.949219 50.488281 129.390625 51.179688 C 129.21875 51.390625 128.902344 51.421875 128.691406 51.253906 C 128.476562 51.078125 128.445312 50.765625 128.617188 50.550781 C 129.191406 49.84375 129.054688 49.066406 129.011719 48.875 C 129 48.863281 128.988281 48.851562 128.976562 48.835938 C 128.816406 48.664062 128.519531 48.519531 128.300781 48.460938 C 127.703125 48.296875 127.085938 48.503906 126.5625 48.804688 C 126.894531 49.191406 127.246094 49.796875 127.28125 50.613281 C 127.289062 50.890625 127.074219 51.121094 126.800781 51.132812 C 126.527344 51.140625 126.296875 50.929688 126.285156 50.652344 C 126.246094 49.636719 125.492188 49.140625 125.441406 49.105469 C 125.382812 49.085938 125.324219 49.066406 125.265625 49.039062 C 124.851562 48.847656 124.242188 48.753906 123.792969 48.808594 C 122.671875 48.9375 122.128906 49.917969 121.824219 50.910156 C 121.8125 50.949219 121.800781 50.988281 121.78125 51.023438 C 122.257812 51.449219 122.882812 52.273438 122.605469 53.566406 C 122.546875 53.835938 122.28125 54.007812 122.011719 53.949219 C 121.742188 53.890625 121.570312 53.628906 121.628906 53.359375 C 122.148438 50.960938 119.1875 51.152344 118.5 53.496094 C 118.109375 54.839844 121.417969 57.632812 122.765625 56.425781 Z M 122.765625 56.425781 " fill-opacity="1" fill-rule="evenodd"/></g><path fill="#51a0a2" d="M 101.242188 89.832031 C 101.179688 89.832031 101.125 89.808594 101.089844 89.769531 C 101.050781 89.726562 101.039062 89.675781 101.046875 89.609375 L 102.050781 81.515625 C 102.058594 81.449219 102.082031 81.398438 102.128906 81.355469 C 102.171875 81.316406 102.226562 81.296875 102.292969 81.296875 L 105.230469 81.296875 C 106.089844 81.296875 106.773438 81.507812 107.28125 81.925781 C 107.792969 82.34375 108.046875 82.90625 108.046875 83.613281 C 108.046875 83.6875 108.039062 83.804688 108.023438 83.96875 L 107.628906 87.160156 C 107.566406 87.6875 107.378906 88.15625 107.070312 88.5625 C 106.761719 88.96875 106.355469 89.28125 105.855469 89.503906 C 105.359375 89.722656 104.800781 89.832031 104.183594 89.832031 Z M 103.203125 88.011719 C 103.203125 88.070312 103.230469 88.097656 103.277344 88.097656 L 104.472656 88.097656 C 104.789062 88.097656 105.0625 87.984375 105.289062 87.75 C 105.515625 87.519531 105.660156 87.207031 105.71875 86.816406 L 106.019531 84.308594 C 106.027344 84.25 106.03125 84.171875 106.03125 84.074219 C 106.03125 83.75 105.945312 83.496094 105.773438 83.308594 C 105.605469 83.121094 105.375 83.027344 105.082031 83.027344 L 103.898438 83.027344 C 103.882812 83.027344 103.863281 83.035156 103.84375 83.050781 C 103.824219 83.066406 103.8125 83.089844 103.8125 83.113281 Z M 103.203125 88.011719 " fill-opacity="1" fill-rule="nonzero"/><path fill="#51a0a2" d="M 111.519531 88.210938 C 111.769531 88.210938 112.003906 88.171875 112.222656 88.09375 C 112.445312 88.015625 112.625 87.914062 112.773438 87.785156 C 112.828125 87.726562 112.882812 87.699219 112.929688 87.699219 C 112.988281 87.699219 113.035156 87.726562 113.066406 87.785156 L 113.6875 88.683594 C 113.722656 88.726562 113.738281 88.773438 113.738281 88.832031 C 113.738281 88.882812 113.714844 88.9375 113.664062 89 C 113.355469 89.292969 112.984375 89.523438 112.554688 89.6875 C 112.125 89.847656 111.675781 89.929688 111.210938 89.929688 C 110.675781 89.929688 110.214844 89.828125 109.824219 89.628906 C 109.433594 89.429688 109.125 89.152344 108.894531 88.796875 C 108.617188 88.339844 108.480469 87.804688 108.480469 87.1875 C 108.480469 87.007812 108.492188 86.820312 108.519531 86.625 C 108.558594 86.261719 108.648438 85.894531 108.789062 85.527344 C 109.03125 84.894531 109.429688 84.382812 109.980469 83.996094 C 110.535156 83.613281 111.152344 83.417969 111.835938 83.417969 C 112.621094 83.417969 113.226562 83.671875 113.652344 84.175781 C 114.074219 84.679688 114.308594 85.378906 114.347656 86.28125 C 114.347656 86.609375 114.339844 86.859375 114.324219 87.027344 C 114.316406 87.175781 114.234375 87.246094 114.078125 87.246094 L 110.503906 87.246094 C 110.449219 87.246094 110.421875 87.277344 110.421875 87.332031 C 110.421875 87.4375 110.433594 87.523438 110.457031 87.585938 C 110.511719 87.789062 110.632812 87.945312 110.816406 88.050781 C 110.996094 88.15625 111.234375 88.210938 111.519531 88.210938 Z M 111.582031 85.160156 C 111.191406 85.160156 110.894531 85.359375 110.6875 85.757812 L 110.613281 85.941406 L 110.601562 85.976562 C 110.601562 85.996094 110.613281 86.011719 110.632812 86.023438 C 110.652344 86.035156 110.671875 86.039062 110.6875 86.039062 L 112.296875 86.039062 C 112.328125 86.039062 112.355469 86.03125 112.371094 86.011719 C 112.386719 85.988281 112.390625 85.964844 112.382812 85.941406 L 112.359375 85.78125 C 112.316406 85.589844 112.230469 85.4375 112.101562 85.328125 C 111.972656 85.214844 111.796875 85.160156 111.582031 85.160156 Z M 111.582031 85.160156 " fill-opacity="1" fill-rule="nonzero"/><path fill="#51a0a2" d="M 116.574219 89.832031 C 116.445312 89.832031 116.367188 89.769531 116.34375 89.648438 L 115.257812 83.773438 L 115.257812 83.722656 C 115.257812 83.59375 115.328125 83.527344 115.464844 83.527344 L 117.160156 83.527344 C 117.214844 83.527344 117.261719 83.546875 117.296875 83.582031 C 117.335938 83.621094 117.359375 83.664062 117.367188 83.722656 L 117.746094 86.964844 C 117.753906 86.996094 117.765625 87.015625 117.785156 87.015625 C 117.804688 87.015625 117.820312 86.996094 117.832031 86.964844 L 118.988281 83.722656 C 119.003906 83.664062 119.039062 83.621094 119.085938 83.582031 C 119.136719 83.546875 119.1875 83.527344 119.242188 83.527344 L 120.949219 83.539062 C 121.007812 83.539062 121.050781 83.550781 121.085938 83.570312 C 121.117188 83.589844 121.132812 83.621094 121.132812 83.660156 C 121.132812 83.695312 121.121094 83.734375 121.097656 83.785156 L 118.585938 89.648438 C 118.53125 89.769531 118.4375 89.832031 118.304688 89.832031 Z M 116.574219 89.832031 " fill-opacity="1" fill-rule="nonzero"/><path fill="#51a0a2" d="M 121.410156 89.832031 C 121.347656 89.832031 121.292969 89.808594 121.257812 89.769531 C 121.21875 89.726562 121.207031 89.675781 121.214844 89.609375 L 122.21875 81.515625 C 122.222656 81.449219 122.25 81.398438 122.292969 81.355469 C 122.339844 81.316406 122.394531 81.296875 122.460938 81.296875 L 123.984375 81.296875 C 124.097656 81.296875 124.175781 81.34375 124.214844 81.441406 L 125.460938 84.0625 C 125.492188 84.113281 125.53125 84.113281 125.578125 84.0625 L 127.484375 81.441406 C 127.546875 81.34375 127.636719 81.296875 127.753906 81.296875 L 129.277344 81.296875 C 129.339844 81.296875 129.386719 81.316406 129.417969 81.355469 C 129.453125 81.398438 129.464844 81.449219 129.457031 81.515625 L 128.46875 89.609375 C 128.460938 89.675781 128.433594 89.726562 128.386719 89.769531 C 128.34375 89.808594 128.289062 89.832031 128.226562 89.832031 L 126.6875 89.832031 C 126.550781 89.832031 126.492188 89.757812 126.507812 89.609375 L 127.09375 84.84375 L 127.09375 84.820312 C 127.09375 84.789062 127.082031 84.769531 127.0625 84.769531 C 127.042969 84.769531 127.019531 84.789062 126.996094 84.820312 L 125.847656 86.429688 C 125.785156 86.527344 125.695312 86.578125 125.578125 86.578125 L 124.863281 86.578125 C 124.738281 86.578125 124.664062 86.527344 124.628906 86.429688 L 123.863281 84.820312 C 123.847656 84.777344 123.828125 84.761719 123.808594 84.769531 C 123.789062 84.777344 123.773438 84.804688 123.765625 84.84375 L 123.179688 89.609375 C 123.171875 89.675781 123.148438 89.726562 123.105469 89.769531 C 123.066406 89.808594 123.011719 89.832031 122.945312 89.832031 Z M 121.410156 89.832031 " fill-opacity="1" fill-rule="nonzero"/><path fill="#51a0a2" d="M 131.429688 83.113281 C 131.121094 83.113281 130.871094 83.023438 130.683594 82.839844 C 130.496094 82.65625 130.40625 82.414062 130.40625 82.113281 C 130.40625 81.730469 130.53125 81.417969 130.777344 81.167969 C 131.027344 80.921875 131.339844 80.796875 131.722656 80.796875 C 132.039062 80.796875 132.289062 80.882812 132.472656 81.058594 C 132.65625 81.234375 132.746094 81.46875 132.746094 81.761719 C 132.746094 82.15625 132.621094 82.484375 132.375 82.734375 C 132.125 82.988281 131.8125 83.113281 131.429688 83.113281 Z M 129.84375 89.832031 C 129.78125 89.832031 129.726562 89.808594 129.6875 89.769531 C 129.652344 89.726562 129.640625 89.675781 129.648438 89.609375 L 130.367188 83.746094 C 130.394531 83.601562 130.476562 83.527344 130.613281 83.527344 L 132.148438 83.527344 C 132.214844 83.527344 132.261719 83.546875 132.292969 83.585938 C 132.324219 83.628906 132.339844 83.683594 132.328125 83.746094 L 131.613281 89.609375 C 131.605469 89.675781 131.582031 89.726562 131.539062 89.769531 C 131.5 89.808594 131.445312 89.832031 131.378906 89.832031 Z M 129.84375 89.832031 " fill-opacity="1" fill-rule="nonzero"/><path fill="#51a0a2" d="M 136.902344 83.433594 C 137.460938 83.433594 137.90625 83.597656 138.242188 83.925781 C 138.578125 84.253906 138.746094 84.710938 138.746094 85.292969 C 138.746094 85.367188 138.738281 85.496094 138.71875 85.675781 L 138.230469 89.609375 C 138.222656 89.675781 138.199219 89.726562 138.160156 89.769531 C 138.117188 89.808594 138.066406 89.832031 138 89.832031 L 136.464844 89.832031 C 136.398438 89.832031 136.347656 89.808594 136.308594 89.769531 C 136.273438 89.726562 136.261719 89.675781 136.269531 89.609375 L 136.707031 86.113281 L 136.71875 85.953125 C 136.71875 85.71875 136.65625 85.527344 136.53125 85.378906 C 136.402344 85.234375 136.230469 85.160156 136.011719 85.160156 C 135.773438 85.160156 135.570312 85.246094 135.394531 85.421875 C 135.222656 85.597656 135.117188 85.828125 135.085938 86.113281 L 134.660156 89.609375 C 134.632812 89.757812 134.554688 89.832031 134.414062 89.832031 L 132.878906 89.832031 C 132.8125 89.832031 132.765625 89.808594 132.730469 89.769531 C 132.699219 89.726562 132.6875 89.675781 132.695312 89.609375 L 133.414062 83.746094 C 133.421875 83.683594 133.449219 83.628906 133.488281 83.585938 C 133.53125 83.546875 133.582031 83.527344 133.648438 83.527344 L 135.183594 83.527344 C 135.25 83.527344 135.300781 83.546875 135.335938 83.585938 C 135.371094 83.628906 135.386719 83.683594 135.378906 83.746094 L 135.332031 84.085938 C 135.324219 84.128906 135.328125 84.152344 135.347656 84.160156 C 135.367188 84.167969 135.390625 84.15625 135.417969 84.125 C 135.78125 83.664062 136.277344 83.433594 136.902344 83.433594 Z M 136.902344 83.433594 " fill-opacity="1" fill-rule="nonzero"/><path fill="#51a0a2" d="M 143.859375 81.515625 C 143.867188 81.449219 143.894531 81.398438 143.933594 81.355469 C 143.976562 81.316406 144.027344 81.296875 144.09375 81.296875 L 145.640625 81.296875 C 145.707031 81.296875 145.757812 81.316406 145.789062 81.355469 C 145.820312 81.398438 145.832031 81.449219 145.824219 81.515625 L 144.824219 89.609375 C 144.8125 89.675781 144.789062 89.726562 144.75 89.769531 C 144.710938 89.808594 144.660156 89.832031 144.59375 89.832031 L 143.058594 89.832031 C 142.992188 89.832031 142.941406 89.808594 142.902344 89.769531 C 142.867188 89.726562 142.851562 89.675781 142.863281 89.609375 L 142.898438 89.320312 C 142.90625 89.277344 142.898438 89.253906 142.878906 89.246094 C 142.859375 89.238281 142.835938 89.25 142.8125 89.28125 C 142.445312 89.714844 141.972656 89.929688 141.386719 89.929688 C 140.875 89.929688 140.417969 89.753906 140.023438 89.40625 C 139.632812 89.054688 139.390625 88.605469 139.300781 88.050781 C 139.257812 87.789062 139.238281 87.558594 139.238281 87.355469 C 139.238281 87.191406 139.253906 86.957031 139.289062 86.648438 C 139.351562 86.097656 139.5 85.585938 139.730469 85.113281 C 139.972656 84.609375 140.316406 84.203125 140.757812 83.890625 C 141.199219 83.578125 141.671875 83.417969 142.179688 83.417969 C 142.785156 83.417969 143.214844 83.605469 143.460938 83.980469 C 143.476562 84.011719 143.496094 84.023438 143.519531 84.019531 C 143.546875 84.007812 143.558594 83.984375 143.558594 83.945312 Z M 142.886719 87.6875 C 143.054688 87.410156 143.164062 87.078125 143.214844 86.6875 C 143.230469 86.488281 143.238281 86.355469 143.238281 86.28125 C 143.238281 86.015625 143.203125 85.792969 143.128906 85.613281 C 143 85.335938 142.789062 85.195312 142.496094 85.195312 C 142.1875 85.195312 141.933594 85.339844 141.738281 85.625 C 141.566406 85.878906 141.449219 86.230469 141.386719 86.6875 C 141.371094 86.847656 141.363281 86.960938 141.363281 87.027344 C 141.363281 87.285156 141.398438 87.507812 141.46875 87.699219 C 141.585938 88 141.804688 88.148438 142.128906 88.148438 C 142.4375 88.148438 142.691406 87.996094 142.886719 87.6875 Z M 142.886719 87.6875 " fill-opacity="1" fill-rule="nonzero"/><path fill="#51a0a2" d="M 148.40625 89.929688 C 147.617188 89.929688 146.996094 89.777344 146.542969 89.464844 C 146.09375 89.15625 145.867188 88.746094 145.867188 88.234375 C 145.867188 88.144531 145.871094 88.074219 145.878906 88.023438 L 145.890625 87.964844 C 145.902344 87.902344 145.925781 87.847656 145.964844 87.808594 C 146.007812 87.765625 146.058594 87.746094 146.125 87.746094 L 147.574219 87.746094 C 147.730469 87.746094 147.800781 87.773438 147.785156 87.820312 L 147.769531 87.890625 C 147.753906 88.046875 147.820312 88.175781 147.972656 88.277344 C 148.121094 88.378906 148.324219 88.429688 148.578125 88.429688 C 148.8125 88.429688 149 88.390625 149.144531 88.304688 C 149.285156 88.214844 149.355469 88.101562 149.355469 87.964844 C 149.355469 87.851562 149.289062 87.765625 149.160156 87.710938 C 149.03125 87.652344 148.820312 87.59375 148.527344 87.539062 C 148.046875 87.441406 147.660156 87.324219 147.371094 87.1875 C 147.027344 87.03125 146.757812 86.839844 146.550781 86.617188 C 146.347656 86.394531 146.25 86.097656 146.25 85.734375 C 146.25 85.628906 146.253906 85.546875 146.261719 85.492188 C 146.34375 84.859375 146.644531 84.355469 147.160156 83.988281 C 147.683594 83.617188 148.332031 83.433594 149.113281 83.433594 C 149.851562 83.433594 150.441406 83.601562 150.875 83.941406 C 151.308594 84.277344 151.527344 84.722656 151.527344 85.28125 C 151.527344 85.390625 151.519531 85.472656 151.511719 85.527344 C 151.503906 85.570312 151.480469 85.605469 151.441406 85.632812 C 151.398438 85.664062 151.347656 85.675781 151.285156 85.675781 L 149.867188 85.675781 C 149.730469 85.675781 149.664062 85.652344 149.664062 85.601562 L 149.675781 85.527344 C 149.691406 85.371094 149.636719 85.246094 149.507812 85.152344 C 149.382812 85.054688 149.195312 85.003906 148.953125 85.003906 C 148.71875 85.003906 148.523438 85.046875 148.375 85.132812 C 148.222656 85.214844 148.148438 85.332031 148.148438 85.480469 C 148.148438 85.609375 148.222656 85.707031 148.371094 85.765625 C 148.515625 85.824219 148.757812 85.886719 149.089844 85.953125 C 149.480469 86.019531 149.789062 86.09375 150.015625 86.175781 C 150.4375 86.320312 150.765625 86.511719 150.996094 86.753906 C 151.230469 86.992188 151.34375 87.308594 151.34375 87.699219 C 151.34375 87.804688 151.339844 87.886719 151.332031 87.9375 C 151.25 88.574219 150.949219 89.066406 150.425781 89.414062 C 149.898438 89.757812 149.226562 89.929688 148.40625 89.929688 Z M 148.40625 89.929688 " fill-opacity="1" fill-rule="nonzero"/><path fill="#f7f7f7" d="M 115.246094 92.9375 C 115.261719 92.9375 115.273438 92.941406 115.28125 92.953125 C 115.289062 92.960938 115.289062 92.972656 115.289062 92.988281 L 115.261719 93.207031 C 115.261719 93.21875 115.257812 93.234375 115.246094 93.242188 C 115.238281 93.25 115.226562 93.253906 115.207031 93.253906 L 114.664062 93.253906 C 114.65625 93.253906 114.644531 93.261719 114.640625 93.277344 L 114.421875 95.089844 C 114.417969 95.105469 114.410156 95.117188 114.398438 95.125 C 114.390625 95.132812 114.378906 95.136719 114.367188 95.136719 L 114.109375 95.136719 C 114.09375 95.136719 114.082031 95.132812 114.070312 95.125 C 114.066406 95.117188 114.066406 95.105469 114.066406 95.089844 L 114.289062 93.277344 C 114.289062 93.261719 114.28125 93.253906 114.273438 93.253906 L 113.75 93.253906 C 113.714844 93.253906 113.699219 93.238281 113.703125 93.207031 L 113.734375 92.988281 C 113.738281 92.953125 113.753906 92.9375 113.785156 92.9375 Z M 115.246094 92.9375 " fill-opacity="1" fill-rule="nonzero"/><path fill="#f7f7f7" d="M 116.195312 94.855469 C 116.269531 94.855469 116.335938 94.835938 116.398438 94.808594 C 116.460938 94.777344 116.511719 94.734375 116.546875 94.683594 C 116.558594 94.664062 116.574219 94.65625 116.59375 94.65625 C 116.601562 94.65625 116.609375 94.660156 116.617188 94.667969 L 116.753906 94.785156 C 116.761719 94.800781 116.769531 94.8125 116.769531 94.824219 C 116.769531 94.835938 116.765625 94.847656 116.757812 94.855469 C 116.6875 94.953125 116.597656 95.027344 116.488281 95.082031 C 116.378906 95.136719 116.257812 95.164062 116.128906 95.164062 C 115.964844 95.164062 115.835938 95.125 115.734375 95.046875 C 115.636719 94.96875 115.570312 94.859375 115.542969 94.71875 C 115.527344 94.652344 115.519531 94.578125 115.519531 94.492188 C 115.519531 94.441406 115.523438 94.386719 115.53125 94.328125 C 115.546875 94.1875 115.570312 94.074219 115.601562 93.992188 C 115.65625 93.84375 115.746094 93.726562 115.875 93.640625 C 116 93.550781 116.144531 93.503906 116.308594 93.503906 C 116.511719 93.503906 116.660156 93.566406 116.753906 93.6875 C 116.84375 93.808594 116.894531 93.984375 116.894531 94.210938 C 116.894531 94.273438 116.890625 94.339844 116.882812 94.410156 C 116.882812 94.425781 116.875 94.4375 116.863281 94.445312 C 116.855469 94.453125 116.84375 94.457031 116.832031 94.457031 L 115.886719 94.457031 C 115.875 94.457031 115.867188 94.464844 115.859375 94.480469 L 115.855469 94.546875 C 115.855469 94.640625 115.886719 94.71875 115.945312 94.773438 C 116.007812 94.828125 116.089844 94.855469 116.195312 94.855469 Z M 116.265625 93.820312 C 116.1875 93.820312 116.121094 93.839844 116.066406 93.882812 C 116.011719 93.921875 115.96875 93.972656 115.941406 94.042969 C 115.929688 94.066406 115.917969 94.109375 115.902344 94.171875 C 115.898438 94.1875 115.902344 94.191406 115.914062 94.191406 L 116.527344 94.191406 C 116.542969 94.191406 116.546875 94.1875 116.546875 94.171875 C 116.546875 94.113281 116.546875 94.078125 116.546875 94.0625 C 116.539062 93.988281 116.507812 93.929688 116.457031 93.886719 C 116.410156 93.84375 116.34375 93.820312 116.265625 93.820312 Z M 116.265625 93.820312 " fill-opacity="1" fill-rule="nonzero"/><path fill="#f7f7f7" d="M 118.398438 93.582031 C 118.402344 93.566406 118.410156 93.554688 118.417969 93.546875 C 118.425781 93.539062 118.4375 93.535156 118.457031 93.535156 L 118.710938 93.535156 C 118.746094 93.535156 118.757812 93.550781 118.757812 93.582031 L 118.566406 95.089844 C 118.566406 95.105469 118.558594 95.117188 118.550781 95.125 C 118.542969 95.132812 118.527344 95.136719 118.511719 95.136719 L 118.257812 95.136719 C 118.222656 95.136719 118.207031 95.121094 118.210938 95.089844 L 118.222656 95.011719 C 118.222656 95.003906 118.222656 95 118.214844 95 C 118.214844 94.996094 118.207031 95 118.203125 95.003906 C 118.101562 95.109375 117.980469 95.164062 117.839844 95.164062 C 117.695312 95.164062 117.578125 95.125 117.488281 95.046875 C 117.398438 94.96875 117.335938 94.863281 117.308594 94.726562 C 117.296875 94.65625 117.289062 94.589844 117.289062 94.515625 C 117.289062 94.449219 117.296875 94.386719 117.304688 94.332031 C 117.320312 94.183594 117.351562 94.058594 117.402344 93.945312 C 117.464844 93.808594 117.550781 93.699219 117.660156 93.625 C 117.769531 93.546875 117.898438 93.503906 118.042969 93.503906 C 118.183594 93.503906 118.292969 93.554688 118.371094 93.65625 C 118.375 93.664062 118.375 93.667969 118.378906 93.664062 C 118.386719 93.664062 118.390625 93.65625 118.390625 93.648438 Z M 118.1875 94.695312 C 118.246094 94.617188 118.285156 94.496094 118.304688 94.332031 C 118.3125 94.277344 118.3125 94.230469 118.3125 94.183594 C 118.3125 94.09375 118.300781 94.015625 118.273438 93.960938 C 118.234375 93.867188 118.164062 93.820312 118.066406 93.820312 C 117.957031 93.820312 117.871094 93.863281 117.800781 93.953125 C 117.730469 94.046875 117.6875 94.175781 117.667969 94.335938 C 117.660156 94.386719 117.65625 94.433594 117.65625 94.476562 C 117.65625 94.558594 117.667969 94.632812 117.695312 94.695312 C 117.738281 94.796875 117.816406 94.847656 117.933594 94.847656 C 118.035156 94.847656 118.117188 94.796875 118.1875 94.695312 Z M 118.1875 94.695312 " fill-opacity="1" fill-rule="nonzero"/><path fill="#f7f7f7" d="M 120.957031 93.503906 C 121.097656 93.503906 121.203125 93.546875 121.28125 93.625 C 121.355469 93.703125 121.394531 93.816406 121.394531 93.960938 C 121.394531 93.980469 121.394531 94.015625 121.390625 94.0625 L 121.257812 95.089844 C 121.257812 95.121094 121.238281 95.136719 121.207031 95.136719 L 120.953125 95.136719 C 120.9375 95.136719 120.929688 95.132812 120.917969 95.125 C 120.910156 95.117188 120.910156 95.105469 120.910156 95.089844 L 121.027344 94.136719 C 121.027344 94.121094 121.03125 94.101562 121.03125 94.078125 C 121.03125 94 121.007812 93.9375 120.964844 93.890625 C 120.925781 93.84375 120.867188 93.820312 120.792969 93.820312 C 120.707031 93.820312 120.636719 93.847656 120.574219 93.90625 C 120.515625 93.964844 120.480469 94.039062 120.46875 94.132812 L 120.351562 95.089844 C 120.347656 95.121094 120.332031 95.136719 120.296875 95.136719 L 120.042969 95.136719 C 120.03125 95.136719 120.019531 95.132812 120.011719 95.125 C 120.003906 95.117188 120 95.105469 120.003906 95.089844 L 120.117188 94.136719 C 120.121094 94.121094 120.121094 94.105469 120.121094 94.082031 C 120.121094 94.003906 120.097656 93.941406 120.054688 93.894531 C 120.015625 93.84375 119.957031 93.820312 119.878906 93.820312 C 119.804688 93.820312 119.738281 93.84375 119.683594 93.890625 C 119.628906 93.9375 119.589844 94 119.574219 94.078125 L 119.445312 95.089844 C 119.441406 95.105469 119.4375 95.117188 119.425781 95.125 C 119.417969 95.132812 119.40625 95.136719 119.394531 95.136719 L 119.136719 95.136719 C 119.121094 95.136719 119.109375 95.132812 119.101562 95.125 C 119.09375 95.117188 119.089844 95.105469 119.09375 95.089844 L 119.277344 93.582031 C 119.285156 93.550781 119.300781 93.535156 119.332031 93.535156 L 119.589844 93.535156 C 119.621094 93.535156 119.636719 93.550781 119.628906 93.582031 L 119.621094 93.667969 C 119.617188 93.675781 119.621094 93.683594 119.625 93.683594 C 119.632812 93.683594 119.636719 93.679688 119.640625 93.671875 C 119.742188 93.5625 119.878906 93.503906 120.046875 93.503906 C 120.148438 93.503906 120.234375 93.527344 120.300781 93.566406 C 120.371094 93.609375 120.417969 93.667969 120.449219 93.75 C 120.453125 93.757812 120.457031 93.757812 120.460938 93.757812 C 120.464844 93.757812 120.46875 93.753906 120.472656 93.746094 C 120.53125 93.667969 120.601562 93.609375 120.683594 93.566406 C 120.765625 93.527344 120.859375 93.503906 120.957031 93.503906 Z M 120.957031 93.503906 " fill-opacity="1" fill-rule="nonzero"/><path fill="#f7f7f7" d="M 122.59375 95.136719 C 122.5625 95.136719 122.546875 95.121094 122.554688 95.089844 L 122.8125 92.988281 C 122.816406 92.953125 122.835938 92.9375 122.867188 92.9375 L 123.597656 92.9375 C 123.796875 92.9375 123.953125 92.988281 124.074219 93.085938 C 124.1875 93.1875 124.25 93.320312 124.25 93.488281 C 124.25 93.507812 124.246094 93.539062 124.246094 93.582031 L 124.132812 94.496094 C 124.109375 94.691406 124.023438 94.851562 123.875 94.964844 C 123.730469 95.082031 123.546875 95.136719 123.328125 95.136719 Z M 122.941406 94.808594 C 122.941406 94.816406 122.945312 94.824219 122.957031 94.824219 L 123.378906 94.824219 C 123.488281 94.824219 123.578125 94.789062 123.652344 94.722656 C 123.722656 94.648438 123.769531 94.554688 123.785156 94.4375 L 123.882812 93.640625 C 123.886719 93.625 123.886719 93.605469 123.886719 93.574219 C 123.886719 93.472656 123.859375 93.394531 123.800781 93.335938 C 123.746094 93.28125 123.671875 93.25 123.574219 93.25 L 123.152344 93.25 C 123.136719 93.25 123.132812 93.257812 123.132812 93.273438 Z M 122.941406 94.808594 " fill-opacity="1" fill-rule="nonzero"/><path fill="#f7f7f7" d="M 125.273438 94.855469 C 125.347656 94.855469 125.414062 94.835938 125.472656 94.808594 C 125.535156 94.777344 125.585938 94.734375 125.625 94.683594 C 125.636719 94.664062 125.652344 94.65625 125.671875 94.65625 C 125.679688 94.65625 125.6875 94.660156 125.695312 94.667969 L 125.832031 94.785156 C 125.839844 94.800781 125.847656 94.8125 125.847656 94.824219 C 125.847656 94.835938 125.84375 94.847656 125.835938 94.855469 C 125.761719 94.953125 125.671875 95.027344 125.5625 95.082031 C 125.453125 95.136719 125.335938 95.164062 125.203125 95.164062 C 125.042969 95.164062 124.910156 95.125 124.8125 95.046875 C 124.710938 94.96875 124.648438 94.859375 124.617188 94.71875 C 124.605469 94.652344 124.597656 94.578125 124.597656 94.492188 C 124.597656 94.441406 124.601562 94.386719 124.605469 94.328125 C 124.621094 94.1875 124.648438 94.074219 124.679688 93.992188 C 124.734375 93.84375 124.824219 93.726562 124.949219 93.640625 C 125.074219 93.550781 125.21875 93.503906 125.382812 93.503906 C 125.589844 93.503906 125.738281 93.566406 125.832031 93.6875 C 125.921875 93.808594 125.96875 93.984375 125.96875 94.210938 C 125.96875 94.273438 125.964844 94.339844 125.960938 94.410156 C 125.957031 94.425781 125.949219 94.4375 125.941406 94.445312 C 125.933594 94.453125 125.921875 94.457031 125.90625 94.457031 L 124.960938 94.457031 C 124.949219 94.457031 124.941406 94.464844 124.9375 94.480469 L 124.933594 94.546875 C 124.933594 94.640625 124.964844 94.71875 125.023438 94.773438 C 125.082031 94.828125 125.167969 94.855469 125.273438 94.855469 Z M 125.34375 93.820312 C 125.261719 93.820312 125.195312 93.839844 125.140625 93.882812 C 125.085938 93.921875 125.046875 93.972656 125.019531 94.042969 C 125.007812 94.066406 124.996094 94.109375 124.980469 94.171875 C 124.976562 94.1875 124.980469 94.191406 124.992188 94.191406 L 125.605469 94.191406 C 125.617188 94.191406 125.625 94.1875 125.625 94.171875 C 125.625 94.113281 125.625 94.078125 125.625 94.0625 C 125.613281 93.988281 125.585938 93.929688 125.535156 93.886719 C 125.484375 93.84375 125.421875 93.820312 125.34375 93.820312 Z M 125.34375 93.820312 " fill-opacity="1" fill-rule="nonzero"/><path fill="#f7f7f7" d="M 126.773438 95.136719 C 126.742188 95.136719 126.726562 95.125 126.722656 95.097656 L 126.425781 93.585938 L 126.425781 93.574219 C 126.425781 93.546875 126.441406 93.535156 126.472656 93.535156 L 126.761719 93.535156 C 126.789062 93.535156 126.804688 93.546875 126.808594 93.574219 L 126.972656 94.617188 C 126.976562 94.625 126.980469 94.632812 126.980469 94.632812 C 126.988281 94.632812 126.992188 94.625 126.992188 94.617188 L 127.410156 93.574219 C 127.425781 93.546875 127.445312 93.535156 127.472656 93.535156 L 127.757812 93.535156 C 127.785156 93.535156 127.800781 93.546875 127.800781 93.566406 L 127.792969 93.589844 L 127.128906 95.097656 C 127.117188 95.125 127.097656 95.136719 127.070312 95.136719 Z M 126.773438 95.136719 " fill-opacity="1" fill-rule="nonzero"/><path fill="#f7f7f7" d="M 128.753906 94.855469 C 128.828125 94.855469 128.894531 94.835938 128.953125 94.808594 C 129.015625 94.777344 129.066406 94.734375 129.105469 94.683594 C 129.117188 94.664062 129.132812 94.65625 129.152344 94.65625 C 129.160156 94.65625 129.167969 94.660156 129.175781 94.667969 L 129.3125 94.785156 C 129.320312 94.800781 129.328125 94.8125 129.328125 94.824219 C 129.328125 94.835938 129.324219 94.847656 129.316406 94.855469 C 129.242188 94.953125 129.152344 95.027344 129.042969 95.082031 C 128.933594 95.136719 128.816406 95.164062 128.683594 95.164062 C 128.523438 95.164062 128.390625 95.125 128.292969 95.046875 C 128.191406 94.96875 128.128906 94.859375 128.097656 94.71875 C 128.085938 94.652344 128.078125 94.578125 128.078125 94.492188 C 128.078125 94.441406 128.082031 94.386719 128.085938 94.328125 C 128.101562 94.1875 128.128906 94.074219 128.160156 93.992188 C 128.214844 93.84375 128.304688 93.726562 128.429688 93.640625 C 128.554688 93.550781 128.699219 93.503906 128.863281 93.503906 C 129.070312 93.503906 129.21875 93.566406 129.3125 93.6875 C 129.402344 93.808594 129.449219 93.984375 129.449219 94.210938 C 129.449219 94.273438 129.445312 94.339844 129.441406 94.410156 C 129.4375 94.425781 129.429688 94.4375 129.421875 94.445312 C 129.414062 94.453125 129.402344 94.457031 129.386719 94.457031 L 128.441406 94.457031 C 128.429688 94.457031 128.421875 94.464844 128.417969 94.480469 L 128.414062 94.546875 C 128.414062 94.640625 128.445312 94.71875 128.503906 94.773438 C 128.5625 94.828125 128.648438 94.855469 128.753906 94.855469 Z M 128.824219 93.820312 C 128.742188 93.820312 128.675781 93.839844 128.621094 93.882812 C 128.566406 93.921875 128.527344 93.972656 128.5 94.042969 C 128.488281 94.066406 128.476562 94.109375 128.460938 94.171875 C 128.457031 94.1875 128.460938 94.191406 128.472656 94.191406 L 129.085938 94.191406 C 129.097656 94.191406 129.105469 94.1875 129.105469 94.171875 C 129.105469 94.113281 129.105469 94.078125 129.105469 94.0625 C 129.09375 93.988281 129.066406 93.929688 129.015625 93.886719 C 128.964844 93.84375 128.902344 93.820312 128.824219 93.820312 Z M 128.824219 93.820312 " fill-opacity="1" fill-rule="nonzero"/><path fill="#f7f7f7" d="M 129.871094 95.136719 C 129.855469 95.136719 129.84375 95.132812 129.835938 95.125 C 129.828125 95.117188 129.828125 95.105469 129.832031 95.089844 L 130.089844 92.988281 C 130.089844 92.953125 130.109375 92.9375 130.144531 92.9375 L 130.402344 92.9375 C 130.414062 92.9375 130.425781 92.941406 130.433594 92.953125 C 130.441406 92.960938 130.445312 92.972656 130.441406 92.988281 L 130.183594 95.089844 C 130.179688 95.105469 130.171875 95.117188 130.164062 95.125 C 130.15625 95.132812 130.144531 95.136719 130.128906 95.136719 Z M 129.871094 95.136719 " fill-opacity="1" fill-rule="nonzero"/><path fill="#f7f7f7" d="M 131.371094 95.164062 C 131.207031 95.164062 131.074219 95.121094 130.96875 95.039062 C 130.863281 94.957031 130.796875 94.839844 130.773438 94.6875 C 130.757812 94.632812 130.75 94.574219 130.75 94.503906 C 130.75 94.464844 130.753906 94.40625 130.761719 94.332031 C 130.78125 94.199219 130.808594 94.078125 130.859375 93.972656 C 130.921875 93.824219 131.015625 93.710938 131.140625 93.628906 C 131.269531 93.546875 131.414062 93.503906 131.574219 93.503906 C 131.730469 93.503906 131.859375 93.546875 131.960938 93.628906 C 132.066406 93.710938 132.132812 93.824219 132.160156 93.96875 C 132.171875 94.027344 132.179688 94.09375 132.179688 94.167969 C 132.179688 94.21875 132.175781 94.273438 132.171875 94.328125 C 132.152344 94.457031 132.121094 94.574219 132.078125 94.683594 C 132.011719 94.835938 131.914062 94.953125 131.789062 95.035156 C 131.664062 95.121094 131.523438 95.164062 131.371094 95.164062 Z M 131.40625 94.847656 C 131.480469 94.847656 131.550781 94.828125 131.605469 94.78125 C 131.664062 94.738281 131.714844 94.679688 131.746094 94.597656 C 131.777344 94.53125 131.800781 94.441406 131.8125 94.332031 C 131.816406 94.277344 131.820312 94.226562 131.820312 94.175781 C 131.820312 94.148438 131.816406 94.109375 131.816406 94.070312 C 131.800781 93.992188 131.765625 93.929688 131.71875 93.886719 C 131.667969 93.84375 131.605469 93.820312 131.527344 93.820312 C 131.453125 93.820312 131.382812 93.84375 131.324219 93.886719 C 131.265625 93.929688 131.214844 93.992188 131.179688 94.070312 C 131.152344 94.148438 131.132812 94.238281 131.121094 94.332031 C 131.113281 94.386719 131.109375 94.4375 131.109375 94.488281 C 131.109375 94.519531 131.113281 94.558594 131.117188 94.597656 C 131.132812 94.679688 131.164062 94.738281 131.214844 94.78125 C 131.265625 94.828125 131.328125 94.847656 131.40625 94.847656 Z M 131.40625 94.847656 " fill-opacity="1" fill-rule="nonzero"/><path fill="#f7f7f7" d="M 134.019531 93.945312 C 134.03125 94.011719 134.039062 94.082031 134.039062 94.15625 C 134.039062 94.222656 134.035156 94.28125 134.027344 94.339844 C 134.011719 94.488281 133.976562 94.617188 133.929688 94.726562 C 133.863281 94.863281 133.777344 94.96875 133.671875 95.046875 C 133.5625 95.125 133.429688 95.164062 133.28125 95.164062 C 133.140625 95.164062 133.03125 95.113281 132.957031 95.011719 C 132.953125 95.003906 132.945312 95 132.941406 95.003906 C 132.9375 95.003906 132.933594 95.007812 132.933594 95.015625 L 132.851562 95.683594 C 132.847656 95.695312 132.84375 95.707031 132.835938 95.714844 C 132.828125 95.726562 132.8125 95.730469 132.792969 95.730469 L 132.539062 95.730469 C 132.507812 95.730469 132.492188 95.714844 132.496094 95.683594 L 132.753906 93.582031 C 132.761719 93.550781 132.78125 93.535156 132.808594 93.535156 L 133.0625 93.535156 C 133.097656 93.535156 133.113281 93.550781 133.109375 93.582031 L 133.101562 93.664062 C 133.097656 93.671875 133.097656 93.679688 133.105469 93.679688 C 133.109375 93.679688 133.113281 93.675781 133.117188 93.667969 C 133.21875 93.558594 133.339844 93.503906 133.484375 93.503906 C 133.628906 93.503906 133.746094 93.546875 133.839844 93.625 C 133.929688 93.703125 133.992188 93.8125 134.019531 93.945312 Z M 133.527344 94.71875 C 133.597656 94.625 133.640625 94.496094 133.660156 94.332031 C 133.667969 94.28125 133.671875 94.238281 133.671875 94.195312 C 133.671875 94.105469 133.65625 94.035156 133.632812 93.976562 C 133.589844 93.875 133.507812 93.824219 133.390625 93.824219 C 133.289062 93.824219 133.207031 93.875 133.136719 93.972656 C 133.082031 94.054688 133.042969 94.175781 133.023438 94.335938 C 133.015625 94.386719 133.011719 94.4375 133.011719 94.484375 C 133.011719 94.578125 133.023438 94.65625 133.050781 94.710938 C 133.09375 94.804688 133.167969 94.847656 133.265625 94.847656 C 133.367188 94.847656 133.457031 94.804688 133.527344 94.71875 Z M 133.527344 94.71875 " fill-opacity="1" fill-rule="nonzero"/><path fill="#f7f7f7" d="M 135.117188 94.855469 C 135.191406 94.855469 135.257812 94.835938 135.316406 94.808594 C 135.378906 94.777344 135.429688 94.734375 135.46875 94.683594 C 135.480469 94.664062 135.496094 94.65625 135.515625 94.65625 C 135.523438 94.65625 135.53125 94.660156 135.539062 94.667969 L 135.675781 94.785156 C 135.683594 94.800781 135.691406 94.8125 135.691406 94.824219 C 135.691406 94.835938 135.6875 94.847656 135.679688 94.855469 C 135.605469 94.953125 135.515625 95.027344 135.40625 95.082031 C 135.296875 95.136719 135.179688 95.164062 135.046875 95.164062 C 134.886719 95.164062 134.753906 95.125 134.65625 95.046875 C 134.554688 94.96875 134.492188 94.859375 134.460938 94.71875 C 134.449219 94.652344 134.441406 94.578125 134.441406 94.492188 C 134.441406 94.441406 134.445312 94.386719 134.449219 94.328125 C 134.464844 94.1875 134.492188 94.074219 134.523438 93.992188 C 134.578125 93.84375 134.667969 93.726562 134.792969 93.640625 C 134.917969 93.550781 135.0625 93.503906 135.226562 93.503906 C 135.433594 93.503906 135.582031 93.566406 135.675781 93.6875 C 135.765625 93.808594 135.8125 93.984375 135.8125 94.210938 C 135.8125 94.273438 135.808594 94.339844 135.804688 94.410156 C 135.800781 94.425781 135.792969 94.4375 135.785156 94.445312 C 135.777344 94.453125 135.765625 94.457031 135.75 94.457031 L 134.804688 94.457031 C 134.792969 94.457031 134.785156 94.464844 134.78125 94.480469 L 134.777344 94.546875 C 134.777344 94.640625 134.808594 94.71875 134.867188 94.773438 C 134.925781 94.828125 135.011719 94.855469 135.117188 94.855469 Z M 135.1875 93.820312 C 135.105469 93.820312 135.039062 93.839844 134.984375 93.882812 C 134.929688 93.921875 134.890625 93.972656 134.863281 94.042969 C 134.851562 94.066406 134.839844 94.109375 134.824219 94.171875 C 134.820312 94.1875 134.824219 94.191406 134.835938 94.191406 L 135.449219 94.191406 C 135.460938 94.191406 135.46875 94.1875 135.46875 94.171875 C 135.46875 94.113281 135.46875 94.078125 135.46875 94.0625 C 135.457031 93.988281 135.429688 93.929688 135.378906 93.886719 C 135.332031 93.84375 135.265625 93.820312 135.1875 93.820312 Z M 135.1875 93.820312 " fill-opacity="1" fill-rule="nonzero"/><path fill="#f7f7f7" d="M 137.109375 93.511719 C 137.171875 93.511719 137.222656 93.523438 137.269531 93.546875 C 137.289062 93.558594 137.292969 93.582031 137.285156 93.613281 L 137.207031 93.871094 C 137.199219 93.890625 137.191406 93.902344 137.183594 93.90625 C 137.171875 93.910156 137.160156 93.910156 137.144531 93.902344 C 137.121094 93.894531 137.089844 93.890625 137.050781 93.890625 C 137.023438 93.890625 137.003906 93.890625 136.988281 93.894531 C 136.90625 93.898438 136.828125 93.929688 136.765625 93.988281 C 136.699219 94.046875 136.664062 94.121094 136.648438 94.210938 L 136.542969 95.089844 C 136.539062 95.105469 136.53125 95.117188 136.523438 95.125 C 136.515625 95.132812 136.503906 95.136719 136.488281 95.136719 L 136.230469 95.136719 C 136.21875 95.136719 136.207031 95.132812 136.199219 95.125 C 136.191406 95.117188 136.1875 95.105469 136.191406 95.089844 L 136.375 93.582031 C 136.378906 93.550781 136.398438 93.535156 136.429688 93.535156 L 136.6875 93.535156 C 136.71875 93.535156 136.734375 93.550781 136.726562 93.582031 L 136.714844 93.707031 C 136.714844 93.714844 136.714844 93.71875 136.71875 93.722656 C 136.722656 93.722656 136.726562 93.71875 136.730469 93.710938 C 136.828125 93.578125 136.953125 93.511719 137.109375 93.511719 Z M 137.109375 93.511719 " fill-opacity="1" fill-rule="nonzero"/><path fill="#f7f7f7" d="M 138.054688 95.160156 C 137.875 95.160156 137.734375 95.121094 137.625 95.046875 C 137.519531 94.972656 137.46875 94.875 137.46875 94.757812 C 137.46875 94.734375 137.46875 94.722656 137.472656 94.710938 L 137.476562 94.695312 C 137.476562 94.660156 137.496094 94.644531 137.527344 94.644531 L 137.773438 94.644531 C 137.789062 94.644531 137.796875 94.644531 137.808594 94.652344 C 137.816406 94.65625 137.816406 94.660156 137.816406 94.667969 L 137.816406 94.6875 C 137.808594 94.742188 137.828125 94.785156 137.878906 94.828125 C 137.929688 94.867188 138 94.882812 138.085938 94.882812 C 138.171875 94.882812 138.242188 94.867188 138.296875 94.828125 C 138.355469 94.785156 138.382812 94.738281 138.382812 94.683594 C 138.382812 94.640625 138.363281 94.609375 138.328125 94.585938 C 138.289062 94.5625 138.226562 94.539062 138.140625 94.515625 L 138.03125 94.480469 C 137.886719 94.4375 137.773438 94.382812 137.691406 94.324219 C 137.613281 94.261719 137.574219 94.171875 137.574219 94.054688 C 137.574219 94.027344 137.574219 94.007812 137.574219 93.992188 C 137.589844 93.84375 137.660156 93.730469 137.78125 93.644531 C 137.90625 93.558594 138.058594 93.511719 138.242188 93.511719 C 138.414062 93.511719 138.546875 93.554688 138.648438 93.632812 C 138.753906 93.707031 138.804688 93.808594 138.804688 93.933594 C 138.804688 93.960938 138.804688 93.980469 138.804688 93.992188 C 138.800781 94.015625 138.78125 94.027344 138.753906 94.027344 L 138.515625 94.027344 C 138.480469 94.027344 138.464844 94.023438 138.464844 94.007812 L 138.46875 93.992188 C 138.476562 93.9375 138.453125 93.894531 138.410156 93.855469 C 138.363281 93.820312 138.292969 93.800781 138.203125 93.800781 C 138.125 93.800781 138.058594 93.816406 138.003906 93.84375 C 137.949219 93.875 137.921875 93.917969 137.914062 93.972656 C 137.90625 94.023438 137.925781 94.0625 137.96875 94.089844 C 138.015625 94.113281 138.089844 94.144531 138.195312 94.171875 L 138.261719 94.191406 C 138.414062 94.238281 138.53125 94.292969 138.617188 94.351562 C 138.699219 94.414062 138.742188 94.503906 138.742188 94.621094 C 138.742188 94.648438 138.742188 94.667969 138.738281 94.679688 C 138.71875 94.828125 138.648438 94.945312 138.527344 95.03125 C 138.40625 95.117188 138.246094 95.160156 138.054688 95.160156 Z M 138.054688 95.160156 " fill-opacity="1" fill-rule="nonzero"/></svg>