<svg xmlns="http://www.w3.org/2000/svg" xmlns:xlink="http://www.w3.org/1999/xlink" width="500" zoomAndPan="magnify" viewBox="0 0 375 374.999991" height="500" preserveAspectRatio="xMidYMid meet" version="1.0"><defs><g/><clipPath id="8060c8d333"><path d="M 153.121094 120 L 222 120 L 222 176 L 153.121094 176 Z M 153.121094 120 " clip-rule="nonzero"/></clipPath><clipPath id="dffc0115d4"><path d="M 170 179 L 205 179 L 205 202.921875 L 170 202.921875 Z M 170 179 " clip-rule="nonzero"/></clipPath><clipPath id="976999f841"><path d="M 158 96.425781 L 217 96.425781 L 217 137 L 158 137 Z M 158 96.425781 " clip-rule="nonzero"/></clipPath></defs><rect x="-37.5" width="450" fill="#ffffff" y="-37.499999" height="449.999989" fill-opacity="1"/><rect x="-37.5" width="450" fill="#001719" y="-37.499999" height="449.999989" fill-opacity="1"/><g clip-path="url(#8060c8d333)"><path fill="#f7f7f7" d="M 182.894531 175.871094 L 174.316406 175.871094 C 170.980469 163.167969 160.289062 159.101562 155.964844 146.179688 C 153.121094 137.664062 153.257812 128.605469 155.9375 120.636719 C 160.304688 128.058594 168.480469 132.6875 177.03125 134.777344 C 184.277344 136.542969 186.722656 141.386719 187.496094 148.015625 C 188.28125 141.382812 190.722656 136.542969 197.972656 134.777344 C 206.523438 132.6875 214.695312 128.058594 219.0625 120.636719 C 221.742188 128.605469 221.882812 137.664062 219.035156 146.179688 C 214.707031 159.101562 204.019531 163.167969 200.683594 175.871094 L 192.109375 175.871094 C 194.195312 150.882812 210.003906 153.535156 212.914062 137.648438 C 202.664062 154.398438 190.246094 144.695312 187.496094 172.421875 C 184.75 144.699219 172.335938 154.398438 162.078125 137.648438 C 164.996094 153.535156 180.800781 150.882812 182.894531 175.871094 Z M 182.894531 175.871094 " fill-opacity="1" fill-rule="evenodd"/></g><g clip-path="url(#dffc0115d4)"><path fill="#51a0a2" d="M 204.769531 179.074219 L 170.234375 179.074219 L 170.234375 183.574219 C 170.234375 186.042969 172.539062 188.070312 175.359375 188.070312 L 175.421875 188.070312 L 175.421875 192.566406 C 175.421875 196.414062 184.785156 196.417969 188.082031 197.066406 L 181.34375 197.066406 L 181.34375 199.960938 C 181.34375 201.558594 182.832031 202.855469 184.640625 202.855469 L 190.359375 202.855469 C 192.175781 202.855469 193.65625 201.554688 193.65625 199.960938 L 193.65625 197.066406 L 194.460938 197.066406 C 197.277344 197.066406 199.578125 195.039062 199.578125 192.566406 L 199.585938 188.070312 L 192.714844 188.070312 C 196.042969 187.417969 204.769531 187.496094 204.769531 183.574219 Z M 204.769531 179.074219 " fill-opacity="1" fill-rule="evenodd"/></g><g clip-path="url(#976999f841)"><path fill="#51a0a2" d="M 174.617188 127.511719 C 178.015625 124.46875 181.347656 116.902344 182.0625 113.402344 C 182.066406 113.351562 182.078125 113.308594 182.089844 113.257812 C 182.480469 111.238281 182.566406 108.800781 182.128906 105.886719 C 181.96875 104.84375 182.679688 103.875 183.722656 103.722656 C 184.765625 103.566406 185.726562 104.277344 185.886719 105.320312 C 186.214844 107.46875 186.289062 109.398438 186.179688 111.15625 C 189.570312 110.457031 195.132812 110.027344 198.140625 113.605469 C 198.816406 114.402344 198.714844 115.601562 197.914062 116.269531 C 197.117188 116.949219 195.917969 116.847656 195.246094 116.042969 C 193.039062 113.421875 187.738281 114.574219 185.539062 115.195312 C 184.65625 119.664062 179.691406 128.105469 177.378906 130.886719 C 184.386719 132.859375 187.6875 136.539062 187.6875 136.539062 C 189.101562 134.636719 192.214844 133.429688 195.414062 132.359375 C 195.582031 125.734375 192.621094 123.320312 192.613281 123.3125 C 191.867188 122.679688 191.773438 121.566406 192.40625 120.820312 C 193.039062 120.074219 194.160156 119.976562 194.90625 120.613281 C 194.921875 120.617188 198.726562 123.746094 198.960938 131.203125 C 200.597656 130.65625 202.285156 130.058594 203.945312 129.320312 C 208.667969 127.238281 213.71875 123.496094 215.679688 119.011719 C 217.453125 114.980469 214.292969 111.933594 210.859375 110.664062 C 210.75 110.628906 210.636719 110.578125 210.535156 110.527344 C 209.5625 112.023438 208.046875 113.625 205.710938 114.679688 C 204.757812 115.109375 203.636719 114.679688 203.203125 113.722656 C 202.773438 112.769531 203.199219 111.648438 204.152344 111.214844 C 206.753906 110.042969 207.808594 107.914062 208.210938 106.769531 C 208.210938 106.609375 208.226562 106.453125 208.253906 106.289062 C 208.382812 105.289062 208.140625 103.945312 207.707031 103.046875 C 206.730469 101.050781 204.511719 100.296875 202.398438 100.023438 C 202.441406 102.007812 202.03125 104.851562 199.894531 107.488281 C 199.242188 108.300781 198.042969 108.421875 197.230469 107.769531 C 196.417969 107.105469 196.289062 105.914062 196.949219 105.097656 C 199.136719 102.394531 198.625 99.425781 198.449219 98.695312 C 198.410156 98.644531 198.363281 98.601562 198.320312 98.550781 C 197.703125 97.890625 196.582031 97.335938 195.734375 97.109375 C 193.464844 96.488281 191.109375 97.28125 189.113281 98.429688 C 190.378906 99.910156 191.722656 102.210938 191.84375 105.335938 C 191.886719 106.382812 191.066406 107.269531 190.023438 107.308594 C 188.976562 107.347656 188.089844 106.535156 188.046875 105.484375 C 187.898438 101.605469 185.019531 99.703125 184.824219 99.574219 C 184.601562 99.507812 184.378906 99.429688 184.164062 99.320312 C 182.582031 98.585938 180.25 98.234375 178.539062 98.4375 C 174.25 98.9375 172.179688 102.683594 171.023438 106.460938 C 170.972656 106.609375 170.925781 106.761719 170.859375 106.898438 C 172.675781 108.515625 175.066406 111.671875 173.996094 116.605469 C 173.773438 117.632812 172.761719 118.285156 171.734375 118.0625 C 170.714844 117.84375 170.058594 116.835938 170.28125 115.808594 C 172.257812 106.65625 160.960938 107.382812 158.335938 116.328125 C 156.835938 121.457031 169.472656 132.125 174.617188 127.511719 Z M 174.617188 127.511719 " fill-opacity="1" fill-rule="evenodd"/></g><g fill="#51a0a2" fill-opacity="1"><g transform="translate(90.328435, 255.015778)"><g><path d="M 2.140625 0 C 1.890625 0 1.691406 -0.078125 1.546875 -0.234375 C 1.410156 -0.390625 1.359375 -0.59375 1.390625 -0.84375 L 5.21875 -31.734375 C 5.25 -31.984375 5.347656 -32.1875 5.515625 -32.34375 C 5.679688 -32.5 5.890625 -32.578125 6.140625 -32.578125 L 17.359375 -32.578125 C 20.640625 -32.578125 23.25 -31.773438 25.1875 -30.171875 C 27.132812 -28.578125 28.109375 -26.429688 28.109375 -23.734375 C 28.109375 -23.453125 28.078125 -23 28.015625 -22.375 L 26.515625 -10.1875 C 26.273438 -8.175781 25.5625 -6.394531 24.375 -4.84375 C 23.195312 -3.289062 21.65625 -2.09375 19.75 -1.25 C 17.84375 -0.414062 15.710938 0 13.359375 0 Z M 9.625 -6.9375 C 9.625 -6.71875 9.71875 -6.609375 9.90625 -6.609375 L 14.46875 -6.609375 C 15.675781 -6.609375 16.710938 -7.050781 17.578125 -7.9375 C 18.453125 -8.820312 19 -10.007812 19.21875 -11.5 L 20.375 -21.078125 C 20.40625 -21.296875 20.421875 -21.59375 20.421875 -21.96875 C 20.421875 -23.207031 20.09375 -24.179688 19.4375 -24.890625 C 18.789062 -25.609375 17.910156 -25.96875 16.796875 -25.96875 L 12.28125 -25.96875 C 12.21875 -25.96875 12.144531 -25.9375 12.0625 -25.875 C 11.988281 -25.8125 11.953125 -25.734375 11.953125 -25.640625 Z M 9.625 -6.9375 "/></g></g></g><g fill="#51a0a2" fill-opacity="1"><g transform="translate(118.189533, 255.015778)"><g><path d="M 13.5 -6.1875 C 14.457031 -6.1875 15.351562 -6.332031 16.1875 -6.625 C 17.03125 -6.925781 17.726562 -7.320312 18.28125 -7.8125 C 18.5 -8.03125 18.703125 -8.140625 18.890625 -8.140625 C 19.109375 -8.140625 19.28125 -8.03125 19.40625 -7.8125 L 21.78125 -4.375 C 21.90625 -4.21875 21.96875 -4.03125 21.96875 -3.8125 C 21.96875 -3.625 21.875 -3.410156 21.6875 -3.171875 C 20.507812 -2.046875 19.097656 -1.171875 17.453125 -0.546875 C 15.804688 0.0664062 14.097656 0.375 12.328125 0.375 C 10.285156 0.375 8.519531 -0.00390625 7.03125 -0.765625 C 5.539062 -1.523438 4.359375 -2.585938 3.484375 -3.953125 C 2.429688 -5.691406 1.90625 -7.738281 1.90625 -10.09375 C 1.90625 -10.78125 1.953125 -11.492188 2.046875 -12.234375 C 2.203125 -13.628906 2.546875 -15.023438 3.078125 -16.421875 C 4.003906 -18.847656 5.519531 -20.796875 7.625 -22.265625 C 9.738281 -23.734375 12.097656 -24.46875 14.703125 -24.46875 C 17.710938 -24.46875 20.023438 -23.503906 21.640625 -21.578125 C 23.253906 -19.660156 24.140625 -16.984375 24.296875 -13.546875 C 24.296875 -12.296875 24.265625 -11.347656 24.203125 -10.703125 C 24.171875 -10.140625 23.859375 -9.859375 23.265625 -9.859375 L 9.625 -9.859375 C 9.414062 -9.859375 9.3125 -9.75 9.3125 -9.53125 C 9.3125 -9.132812 9.359375 -8.8125 9.453125 -8.5625 C 9.660156 -7.789062 10.113281 -7.203125 10.8125 -6.796875 C 11.507812 -6.390625 12.40625 -6.1875 13.5 -6.1875 Z M 13.734375 -17.828125 C 12.242188 -17.828125 11.109375 -17.066406 10.328125 -15.546875 L 10.046875 -14.84375 L 10 -14.703125 C 10 -14.640625 10.035156 -14.582031 10.109375 -14.53125 C 10.191406 -14.488281 10.265625 -14.46875 10.328125 -14.46875 L 16.46875 -14.46875 C 16.59375 -14.46875 16.6875 -14.503906 16.75 -14.578125 C 16.8125 -14.660156 16.828125 -14.75 16.796875 -14.84375 L 16.703125 -15.453125 C 16.546875 -16.191406 16.21875 -16.769531 15.71875 -17.1875 C 15.226562 -17.613281 14.566406 -17.828125 13.734375 -17.828125 Z M 13.734375 -17.828125 "/></g></g></g><g fill="#51a0a2" fill-opacity="1"><g transform="translate(143.073818, 255.015778)"><g><path d="M 7.90625 0 C 7.414062 0 7.125 -0.234375 7.03125 -0.703125 L 2.890625 -23.125 L 2.890625 -23.3125 C 2.890625 -23.8125 3.148438 -24.0625 3.671875 -24.0625 L 10.140625 -24.0625 C 10.359375 -24.0625 10.535156 -23.988281 10.671875 -23.84375 C 10.816406 -23.707031 10.90625 -23.53125 10.9375 -23.3125 L 12.375 -10.9375 C 12.40625 -10.8125 12.457031 -10.75 12.53125 -10.75 C 12.613281 -10.75 12.671875 -10.8125 12.703125 -10.9375 L 17.125 -23.3125 C 17.1875 -23.53125 17.3125 -23.707031 17.5 -23.84375 C 17.6875 -23.988281 17.882812 -24.0625 18.09375 -24.0625 L 24.609375 -24.015625 C 24.828125 -24.015625 25 -23.972656 25.125 -23.890625 C 25.25 -23.816406 25.3125 -23.703125 25.3125 -23.546875 C 25.3125 -23.421875 25.265625 -23.265625 25.171875 -23.078125 L 15.59375 -0.703125 C 15.375 -0.234375 15.015625 0 14.515625 0 Z M 7.90625 0 "/></g></g></g><g fill="#51a0a2" fill-opacity="1"><g transform="translate(167.260423, 255.015778)"><g><path d="M 2.1875 0 C 1.9375 0 1.738281 -0.078125 1.59375 -0.234375 C 1.457031 -0.390625 1.40625 -0.59375 1.4375 -0.84375 L 5.265625 -31.734375 C 5.285156 -31.984375 5.378906 -32.1875 5.546875 -32.34375 C 5.722656 -32.5 5.9375 -32.578125 6.1875 -32.578125 L 12 -32.578125 C 12.4375 -32.578125 12.734375 -32.390625 12.890625 -32.015625 L 17.640625 -22.015625 C 17.765625 -21.828125 17.914062 -21.828125 18.09375 -22.015625 L 25.359375 -32.015625 C 25.609375 -32.390625 25.953125 -32.578125 26.390625 -32.578125 L 32.203125 -32.578125 C 32.453125 -32.578125 32.632812 -32.5 32.75 -32.34375 C 32.875 -32.1875 32.921875 -31.984375 32.890625 -31.734375 L 29.125 -0.84375 C 29.09375 -0.59375 28.988281 -0.390625 28.8125 -0.234375 C 28.644531 -0.078125 28.441406 0 28.203125 0 L 22.328125 0 C 21.804688 0 21.578125 -0.28125 21.640625 -0.84375 L 23.875 -19.03125 L 23.875 -19.125 C 23.875 -19.25 23.832031 -19.3125 23.75 -19.3125 C 23.675781 -19.3125 23.59375 -19.25 23.5 -19.125 L 19.125 -12.984375 C 18.875 -12.609375 18.53125 -12.421875 18.09375 -12.421875 L 15.359375 -12.421875 C 14.890625 -12.421875 14.59375 -12.609375 14.46875 -12.984375 L 11.546875 -19.125 C 11.484375 -19.28125 11.410156 -19.34375 11.328125 -19.3125 C 11.253906 -19.28125 11.203125 -19.1875 11.171875 -19.03125 L 8.9375 -0.84375 C 8.90625 -0.59375 8.8125 -0.390625 8.65625 -0.234375 C 8.5 -0.078125 8.296875 0 8.046875 0 Z M 2.1875 0 "/></g></g></g><g fill="#51a0a2" fill-opacity="1"><g transform="translate(199.447207, 255.015778)"><g><path d="M 8.234375 -25.640625 C 7.054688 -25.640625 6.109375 -25.988281 5.390625 -26.6875 C 4.679688 -27.382812 4.328125 -28.304688 4.328125 -29.453125 C 4.328125 -30.910156 4.800781 -32.113281 5.75 -33.0625 C 6.695312 -34.007812 7.898438 -34.484375 9.359375 -34.484375 C 10.566406 -34.484375 11.519531 -34.148438 12.21875 -33.484375 C 12.914062 -32.816406 13.265625 -31.921875 13.265625 -30.796875 C 13.265625 -29.285156 12.789062 -28.046875 11.84375 -27.078125 C 10.894531 -26.117188 9.691406 -25.640625 8.234375 -25.640625 Z M 2.1875 0 C 1.9375 0 1.738281 -0.078125 1.59375 -0.234375 C 1.457031 -0.390625 1.40625 -0.59375 1.4375 -0.84375 L 4.1875 -23.21875 C 4.28125 -23.78125 4.59375 -24.0625 5.125 -24.0625 L 10.984375 -24.0625 C 11.234375 -24.0625 11.414062 -23.984375 11.53125 -23.828125 C 11.65625 -23.671875 11.703125 -23.46875 11.671875 -23.21875 L 8.9375 -0.84375 C 8.90625 -0.59375 8.8125 -0.390625 8.65625 -0.234375 C 8.5 -0.078125 8.296875 0 8.046875 0 Z M 2.1875 0 "/></g></g></g><g fill="#51a0a2" fill-opacity="1"><g transform="translate(211.400966, 255.015778)"><g><path d="M 17.171875 -24.421875 C 19.304688 -24.421875 21.007812 -23.789062 22.28125 -22.53125 C 23.5625 -21.28125 24.203125 -19.539062 24.203125 -17.3125 C 24.203125 -17.03125 24.171875 -16.546875 24.109375 -15.859375 L 22.234375 -0.84375 C 22.210938 -0.59375 22.125 -0.390625 21.96875 -0.234375 C 21.8125 -0.078125 21.609375 0 21.359375 0 L 15.5 0 C 15.25 0 15.050781 -0.078125 14.90625 -0.234375 C 14.769531 -0.390625 14.71875 -0.59375 14.75 -0.84375 L 16.421875 -14.1875 L 16.46875 -14.796875 C 16.46875 -15.691406 16.226562 -16.421875 15.75 -16.984375 C 15.269531 -17.546875 14.609375 -17.828125 13.765625 -17.828125 C 12.867188 -17.828125 12.085938 -17.492188 11.421875 -16.828125 C 10.753906 -16.160156 10.359375 -15.28125 10.234375 -14.1875 L 8.609375 -0.84375 C 8.515625 -0.28125 8.203125 0 7.671875 0 L 1.8125 0 C 1.5625 0 1.375 -0.078125 1.25 -0.234375 C 1.125 -0.390625 1.078125 -0.59375 1.109375 -0.84375 L 3.859375 -23.21875 C 3.890625 -23.46875 3.984375 -23.671875 4.140625 -23.828125 C 4.296875 -23.984375 4.5 -24.0625 4.75 -24.0625 L 10.609375 -24.0625 C 10.859375 -24.0625 11.050781 -23.984375 11.1875 -23.828125 C 11.332031 -23.671875 11.390625 -23.46875 11.359375 -23.21875 L 11.171875 -21.921875 C 11.140625 -21.765625 11.160156 -21.671875 11.234375 -21.640625 C 11.316406 -21.609375 11.40625 -21.65625 11.5 -21.78125 C 12.894531 -23.539062 14.785156 -24.421875 17.171875 -24.421875 Z M 17.171875 -24.421875 "/></g></g></g><g fill="#51a0a2" fill-opacity="1"><g transform="translate(236.238741, 255.015778)"><g><path d="M 18.890625 -31.734375 C 18.921875 -31.984375 19.015625 -32.1875 19.171875 -32.34375 C 19.328125 -32.5 19.53125 -32.578125 19.78125 -32.578125 L 25.6875 -32.578125 C 25.9375 -32.578125 26.125 -32.5 26.25 -32.34375 C 26.375 -32.1875 26.421875 -31.984375 26.390625 -31.734375 L 22.5625 -0.84375 C 22.53125 -0.59375 22.4375 -0.390625 22.28125 -0.234375 C 22.132812 -0.078125 21.9375 0 21.6875 0 L 15.828125 0 C 15.578125 0 15.378906 -0.078125 15.234375 -0.234375 C 15.097656 -0.390625 15.046875 -0.59375 15.078125 -0.84375 L 15.21875 -1.953125 C 15.25 -2.109375 15.222656 -2.203125 15.140625 -2.234375 C 15.066406 -2.265625 14.984375 -2.21875 14.890625 -2.09375 C 13.492188 -0.445312 11.679688 0.375 9.453125 0.375 C 7.492188 0.375 5.757812 -0.289062 4.25 -1.625 C 2.75 -2.957031 1.828125 -4.679688 1.484375 -6.796875 C 1.328125 -7.785156 1.25 -8.671875 1.25 -9.453125 C 1.25 -10.066406 1.3125 -10.960938 1.4375 -12.140625 C 1.6875 -14.253906 2.25 -16.207031 3.125 -18 C 4.050781 -19.925781 5.359375 -21.484375 7.046875 -22.671875 C 8.734375 -23.867188 10.539062 -24.46875 12.46875 -24.46875 C 14.789062 -24.46875 16.421875 -23.753906 17.359375 -22.328125 C 17.421875 -22.210938 17.5 -22.164062 17.59375 -22.1875 C 17.6875 -22.21875 17.734375 -22.3125 17.734375 -22.46875 Z M 15.171875 -8.1875 C 15.816406 -9.238281 16.234375 -10.507812 16.421875 -12 C 16.484375 -12.75 16.515625 -13.265625 16.515625 -13.546875 C 16.515625 -14.566406 16.375 -15.414062 16.09375 -16.09375 C 15.601562 -17.15625 14.800781 -17.6875 13.6875 -17.6875 C 12.5 -17.6875 11.535156 -17.140625 10.796875 -16.046875 C 10.140625 -15.085938 9.691406 -13.738281 9.453125 -12 C 9.390625 -11.382812 9.359375 -10.953125 9.359375 -10.703125 C 9.359375 -9.710938 9.492188 -8.859375 9.765625 -8.140625 C 10.203125 -6.992188 11.039062 -6.421875 12.28125 -6.421875 C 13.457031 -6.421875 14.421875 -7.007812 15.171875 -8.1875 Z M 15.171875 -8.1875 "/></g></g></g><g fill="#51a0a2" fill-opacity="1"><g transform="translate(261.588156, 255.015778)"><g><path d="M 10.890625 0.375 C 7.878906 0.375 5.507812 -0.210938 3.78125 -1.390625 C 2.0625 -2.578125 1.203125 -4.144531 1.203125 -6.09375 C 1.203125 -6.4375 1.21875 -6.703125 1.25 -6.890625 L 1.296875 -7.125 C 1.328125 -7.363281 1.421875 -7.5625 1.578125 -7.71875 C 1.734375 -7.875 1.9375 -7.953125 2.1875 -7.953125 L 7.71875 -7.953125 C 8.3125 -7.953125 8.578125 -7.859375 8.515625 -7.671875 L 8.46875 -7.40625 C 8.40625 -6.8125 8.660156 -6.316406 9.234375 -5.921875 C 9.804688 -5.535156 10.578125 -5.34375 11.546875 -5.34375 C 12.441406 -5.34375 13.160156 -5.503906 13.703125 -5.828125 C 14.242188 -6.160156 14.515625 -6.59375 14.515625 -7.125 C 14.515625 -7.550781 14.265625 -7.875 13.765625 -8.09375 C 13.273438 -8.3125 12.472656 -8.53125 11.359375 -8.75 C 9.523438 -9.125 8.050781 -9.570312 6.9375 -10.09375 C 5.632812 -10.6875 4.59375 -11.410156 3.8125 -12.265625 C 3.039062 -13.117188 2.65625 -14.242188 2.65625 -15.640625 C 2.65625 -16.035156 2.671875 -16.34375 2.703125 -16.5625 C 3.015625 -18.976562 4.160156 -20.890625 6.140625 -22.296875 C 8.128906 -23.710938 10.613281 -24.421875 13.59375 -24.421875 C 16.414062 -24.421875 18.65625 -23.773438 20.3125 -22.484375 C 21.96875 -21.203125 22.796875 -19.492188 22.796875 -17.359375 C 22.796875 -16.953125 22.78125 -16.640625 22.75 -16.421875 C 22.71875 -16.265625 22.625 -16.128906 22.46875 -16.015625 C 22.3125 -15.910156 22.113281 -15.859375 21.875 -15.859375 L 16.46875 -15.859375 C 15.945312 -15.859375 15.6875 -15.953125 15.6875 -16.140625 L 15.734375 -16.421875 C 15.796875 -17.015625 15.582031 -17.492188 15.09375 -17.859375 C 14.613281 -18.234375 13.910156 -18.421875 12.984375 -18.421875 C 12.078125 -18.421875 11.335938 -18.257812 10.765625 -17.9375 C 10.191406 -17.613281 9.90625 -17.171875 9.90625 -16.609375 C 9.90625 -16.109375 10.1875 -15.742188 10.75 -15.515625 C 11.3125 -15.285156 12.226562 -15.046875 13.5 -14.796875 C 14.988281 -14.546875 16.164062 -14.265625 17.03125 -13.953125 C 18.644531 -13.398438 19.894531 -12.664062 20.78125 -11.75 C 21.664062 -10.832031 22.109375 -9.628906 22.109375 -8.140625 C 22.109375 -7.734375 22.09375 -7.425781 22.0625 -7.21875 C 21.75 -4.789062 20.59375 -2.914062 18.59375 -1.59375 C 16.59375 -0.28125 14.023438 0.375 10.890625 0.375 Z M 10.890625 0.375 "/></g></g></g><g fill="#f7f7f7" fill-opacity="1"><g transform="translate(138.965138, 275.27468)"><g><path d="M 6.953125 -8.40625 C 7.015625 -8.40625 7.054688 -8.382812 7.078125 -8.34375 C 7.109375 -8.3125 7.117188 -8.265625 7.109375 -8.203125 L 7.015625 -7.375 C 7.015625 -7.320312 6.992188 -7.273438 6.953125 -7.234375 C 6.921875 -7.203125 6.867188 -7.1875 6.796875 -7.1875 L 4.734375 -7.1875 C 4.691406 -7.1875 4.660156 -7.160156 4.640625 -7.109375 L 3.796875 -0.1875 C 3.785156 -0.132812 3.757812 -0.0859375 3.71875 -0.046875 C 3.6875 -0.015625 3.644531 0 3.59375 0 L 2.609375 0 C 2.546875 0 2.5 -0.015625 2.46875 -0.046875 C 2.445312 -0.0859375 2.441406 -0.132812 2.453125 -0.1875 L 3.296875 -7.109375 C 3.296875 -7.160156 3.273438 -7.1875 3.234375 -7.1875 L 1.234375 -7.1875 C 1.109375 -7.1875 1.050781 -7.25 1.0625 -7.375 L 1.171875 -8.203125 C 1.191406 -8.335938 1.257812 -8.40625 1.375 -8.40625 Z M 6.953125 -8.40625 "/></g></g></g><g fill="#f7f7f7" fill-opacity="1"><g transform="translate(146.261152, 275.27468)"><g><path d="M 3.28125 -1.078125 C 3.5625 -1.085938 3.816406 -1.148438 4.046875 -1.265625 C 4.285156 -1.378906 4.476562 -1.535156 4.625 -1.734375 C 4.664062 -1.804688 4.722656 -1.84375 4.796875 -1.84375 C 4.828125 -1.84375 4.859375 -1.828125 4.890625 -1.796875 L 5.40625 -1.34375 C 5.445312 -1.289062 5.46875 -1.242188 5.46875 -1.203125 C 5.46875 -1.160156 5.453125 -1.117188 5.421875 -1.078125 C 5.148438 -0.710938 4.804688 -0.425781 4.390625 -0.21875 C 3.972656 -0.0078125 3.515625 0.09375 3.015625 0.09375 C 2.398438 0.09375 1.898438 -0.0507812 1.515625 -0.34375 C 1.140625 -0.644531 0.894531 -1.066406 0.78125 -1.609375 C 0.726562 -1.859375 0.703125 -2.144531 0.703125 -2.46875 C 0.703125 -2.664062 0.710938 -2.875 0.734375 -3.09375 C 0.796875 -3.632812 0.890625 -4.0625 1.015625 -4.375 C 1.222656 -4.9375 1.566406 -5.382812 2.046875 -5.71875 C 2.523438 -6.0625 3.078125 -6.234375 3.703125 -6.234375 C 4.484375 -6.234375 5.050781 -6 5.40625 -5.53125 C 5.757812 -5.070312 5.9375 -4.410156 5.9375 -3.546875 C 5.9375 -3.304688 5.925781 -3.050781 5.90625 -2.78125 C 5.894531 -2.726562 5.867188 -2.679688 5.828125 -2.640625 C 5.796875 -2.609375 5.753906 -2.59375 5.703125 -2.59375 L 2.09375 -2.59375 C 2.050781 -2.59375 2.019531 -2.566406 2 -2.515625 L 1.984375 -2.265625 C 1.984375 -1.898438 2.097656 -1.609375 2.328125 -1.390625 C 2.554688 -1.179688 2.875 -1.078125 3.28125 -1.078125 Z M 3.546875 -5.03125 C 3.242188 -5.03125 2.988281 -4.953125 2.78125 -4.796875 C 2.570312 -4.648438 2.414062 -4.445312 2.3125 -4.1875 C 2.269531 -4.09375 2.21875 -3.925781 2.15625 -3.6875 C 2.144531 -3.632812 2.160156 -3.609375 2.203125 -3.609375 L 4.546875 -3.609375 C 4.597656 -3.609375 4.625 -3.632812 4.625 -3.6875 C 4.625 -3.90625 4.625 -4.046875 4.625 -4.109375 C 4.582031 -4.390625 4.46875 -4.613281 4.28125 -4.78125 C 4.09375 -4.945312 3.847656 -5.03125 3.546875 -5.03125 Z M 3.546875 -5.03125 "/></g></g></g><g fill="#f7f7f7" fill-opacity="1"><g transform="translate(153.125163, 275.27468)"><g><path d="M 4.828125 -5.9375 C 4.835938 -6 4.859375 -6.046875 4.890625 -6.078125 C 4.921875 -6.109375 4.972656 -6.125 5.046875 -6.125 L 6.015625 -6.125 C 6.140625 -6.125 6.195312 -6.0625 6.1875 -5.9375 L 5.46875 -0.1875 C 5.457031 -0.132812 5.4375 -0.0859375 5.40625 -0.046875 C 5.375 -0.015625 5.320312 0 5.25 0 L 4.28125 0 C 4.15625 0 4.097656 -0.0625 4.109375 -0.1875 L 4.15625 -0.484375 C 4.15625 -0.515625 4.144531 -0.53125 4.125 -0.53125 C 4.113281 -0.539062 4.097656 -0.535156 4.078125 -0.515625 C 3.691406 -0.109375 3.226562 0.09375 2.6875 0.09375 C 2.144531 0.09375 1.695312 -0.0507812 1.34375 -0.34375 C 1 -0.644531 0.769531 -1.054688 0.65625 -1.578125 C 0.613281 -1.835938 0.59375 -2.101562 0.59375 -2.375 C 0.59375 -2.632812 0.609375 -2.867188 0.640625 -3.078125 C 0.703125 -3.640625 0.828125 -4.128906 1.015625 -4.546875 C 1.253906 -5.078125 1.582031 -5.488281 2 -5.78125 C 2.414062 -6.082031 2.90625 -6.234375 3.46875 -6.234375 C 4 -6.234375 4.414062 -6.039062 4.71875 -5.65625 C 4.726562 -5.625 4.738281 -5.613281 4.75 -5.625 C 4.769531 -5.632812 4.785156 -5.65625 4.796875 -5.6875 Z M 4.015625 -1.6875 C 4.234375 -1.988281 4.382812 -2.453125 4.46875 -3.078125 C 4.488281 -3.285156 4.5 -3.472656 4.5 -3.640625 C 4.5 -3.992188 4.445312 -4.28125 4.34375 -4.5 C 4.1875 -4.851562 3.921875 -5.03125 3.546875 -5.03125 C 3.140625 -5.03125 2.804688 -4.863281 2.546875 -4.53125 C 2.273438 -4.164062 2.101562 -3.675781 2.03125 -3.0625 C 2 -2.863281 1.984375 -2.6875 1.984375 -2.53125 C 1.984375 -2.207031 2.035156 -1.925781 2.140625 -1.6875 C 2.296875 -1.300781 2.597656 -1.109375 3.046875 -1.109375 C 3.429688 -1.109375 3.753906 -1.300781 4.015625 -1.6875 Z M 4.015625 -1.6875 "/></g></g></g><g fill="#f7f7f7" fill-opacity="1"><g transform="translate(160.085179, 275.27468)"><g><path d="M 7.625 -6.234375 C 8.15625 -6.234375 8.566406 -6.082031 8.859375 -5.78125 C 9.148438 -5.476562 9.296875 -5.050781 9.296875 -4.5 C 9.296875 -4.414062 9.289062 -4.285156 9.28125 -4.109375 L 8.78125 -0.1875 C 8.769531 -0.0625 8.703125 0 8.578125 0 L 7.609375 0 C 7.554688 0 7.515625 -0.015625 7.484375 -0.046875 C 7.453125 -0.0859375 7.441406 -0.132812 7.453125 -0.1875 L 7.890625 -3.828125 C 7.898438 -3.878906 7.90625 -3.953125 7.90625 -4.046875 C 7.90625 -4.347656 7.820312 -4.585938 7.65625 -4.765625 C 7.5 -4.941406 7.28125 -5.03125 7 -5.03125 C 6.675781 -5.03125 6.398438 -4.921875 6.171875 -4.703125 C 5.941406 -4.484375 5.804688 -4.195312 5.765625 -3.84375 L 5.3125 -0.1875 C 5.300781 -0.0625 5.234375 0 5.109375 0 L 4.140625 0 C 4.085938 0 4.046875 -0.015625 4.015625 -0.046875 C 3.984375 -0.0859375 3.972656 -0.132812 3.984375 -0.1875 L 4.421875 -3.828125 C 4.429688 -3.878906 4.4375 -3.945312 4.4375 -4.03125 C 4.4375 -4.332031 4.351562 -4.570312 4.1875 -4.75 C 4.03125 -4.9375 3.804688 -5.03125 3.515625 -5.03125 C 3.222656 -5.03125 2.972656 -4.941406 2.765625 -4.765625 C 2.554688 -4.585938 2.414062 -4.347656 2.34375 -4.046875 L 1.859375 -0.1875 C 1.847656 -0.132812 1.820312 -0.0859375 1.78125 -0.046875 C 1.75 -0.015625 1.707031 0 1.65625 0 L 0.671875 0 C 0.617188 0 0.578125 -0.015625 0.546875 -0.046875 C 0.515625 -0.0859375 0.503906 -0.132812 0.515625 -0.1875 L 1.21875 -5.9375 C 1.238281 -6.0625 1.304688 -6.125 1.421875 -6.125 L 2.40625 -6.125 C 2.53125 -6.125 2.582031 -6.0625 2.5625 -5.9375 L 2.53125 -5.609375 C 2.519531 -5.578125 2.523438 -5.554688 2.546875 -5.546875 C 2.566406 -5.546875 2.585938 -5.5625 2.609375 -5.59375 C 2.992188 -6.019531 3.507812 -6.234375 4.15625 -6.234375 C 4.539062 -6.234375 4.863281 -6.15625 5.125 -6 C 5.382812 -5.84375 5.570312 -5.609375 5.6875 -5.296875 C 5.707031 -5.273438 5.722656 -5.265625 5.734375 -5.265625 C 5.753906 -5.265625 5.769531 -5.28125 5.78125 -5.3125 C 6 -5.613281 6.265625 -5.84375 6.578125 -6 C 6.898438 -6.15625 7.25 -6.234375 7.625 -6.234375 Z M 7.625 -6.234375 "/></g></g></g><g fill="#f7f7f7" fill-opacity="1"><g transform="translate(170.2852, 275.27468)"><g/></g></g><g fill="#f7f7f7" fill-opacity="1"><g transform="translate(173.165203, 275.27468)"><g><path d="M 0.796875 0 C 0.671875 0 0.617188 -0.0625 0.640625 -0.1875 L 1.625 -8.203125 C 1.644531 -8.335938 1.71875 -8.40625 1.84375 -8.40625 L 4.625 -8.40625 C 5.382812 -8.40625 5.988281 -8.210938 6.4375 -7.828125 C 6.882812 -7.453125 7.109375 -6.941406 7.109375 -6.296875 C 7.109375 -6.222656 7.101562 -6.101562 7.09375 -5.9375 L 6.671875 -2.453125 C 6.578125 -1.703125 6.25 -1.101562 5.6875 -0.65625 C 5.125 -0.21875 4.425781 0 3.59375 0 Z M 2.125 -1.265625 C 2.113281 -1.222656 2.132812 -1.203125 2.1875 -1.203125 L 3.796875 -1.203125 C 4.210938 -1.203125 4.554688 -1.332031 4.828125 -1.59375 C 5.109375 -1.863281 5.28125 -2.222656 5.34375 -2.671875 L 5.71875 -5.71875 C 5.726562 -5.769531 5.734375 -5.851562 5.734375 -5.96875 C 5.734375 -6.351562 5.625 -6.65625 5.40625 -6.875 C 5.195312 -7.09375 4.90625 -7.203125 4.53125 -7.203125 L 2.921875 -7.203125 C 2.867188 -7.203125 2.84375 -7.175781 2.84375 -7.125 Z M 2.125 -1.265625 "/></g></g></g><g fill="#f7f7f7" fill-opacity="1"><g transform="translate(180.905214, 275.27468)"><g><path d="M 3.28125 -1.078125 C 3.5625 -1.085938 3.816406 -1.148438 4.046875 -1.265625 C 4.285156 -1.378906 4.476562 -1.535156 4.625 -1.734375 C 4.664062 -1.804688 4.722656 -1.84375 4.796875 -1.84375 C 4.828125 -1.84375 4.859375 -1.828125 4.890625 -1.796875 L 5.40625 -1.34375 C 5.445312 -1.289062 5.46875 -1.242188 5.46875 -1.203125 C 5.46875 -1.160156 5.453125 -1.117188 5.421875 -1.078125 C 5.148438 -0.710938 4.804688 -0.425781 4.390625 -0.21875 C 3.972656 -0.0078125 3.515625 0.09375 3.015625 0.09375 C 2.398438 0.09375 1.898438 -0.0507812 1.515625 -0.34375 C 1.140625 -0.644531 0.894531 -1.066406 0.78125 -1.609375 C 0.726562 -1.859375 0.703125 -2.144531 0.703125 -2.46875 C 0.703125 -2.664062 0.710938 -2.875 0.734375 -3.09375 C 0.796875 -3.632812 0.890625 -4.0625 1.015625 -4.375 C 1.222656 -4.9375 1.566406 -5.382812 2.046875 -5.71875 C 2.523438 -6.0625 3.078125 -6.234375 3.703125 -6.234375 C 4.484375 -6.234375 5.050781 -6 5.40625 -5.53125 C 5.757812 -5.070312 5.9375 -4.410156 5.9375 -3.546875 C 5.9375 -3.304688 5.925781 -3.050781 5.90625 -2.78125 C 5.894531 -2.726562 5.867188 -2.679688 5.828125 -2.640625 C 5.796875 -2.609375 5.753906 -2.59375 5.703125 -2.59375 L 2.09375 -2.59375 C 2.050781 -2.59375 2.019531 -2.566406 2 -2.515625 L 1.984375 -2.265625 C 1.984375 -1.898438 2.097656 -1.609375 2.328125 -1.390625 C 2.554688 -1.179688 2.875 -1.078125 3.28125 -1.078125 Z M 3.546875 -5.03125 C 3.242188 -5.03125 2.988281 -4.953125 2.78125 -4.796875 C 2.570312 -4.648438 2.414062 -4.445312 2.3125 -4.1875 C 2.269531 -4.09375 2.21875 -3.925781 2.15625 -3.6875 C 2.144531 -3.632812 2.160156 -3.609375 2.203125 -3.609375 L 4.546875 -3.609375 C 4.597656 -3.609375 4.625 -3.632812 4.625 -3.6875 C 4.625 -3.90625 4.625 -4.046875 4.625 -4.109375 C 4.582031 -4.390625 4.46875 -4.613281 4.28125 -4.78125 C 4.09375 -4.945312 3.847656 -5.03125 3.546875 -5.03125 Z M 3.546875 -5.03125 "/></g></g></g><g fill="#f7f7f7" fill-opacity="1"><g transform="translate(187.769225, 275.27468)"><g><path d="M 2.140625 0 C 2.023438 0 1.960938 -0.0507812 1.953125 -0.15625 L 0.8125 -5.921875 L 0.8125 -5.96875 C 0.8125 -6.070312 0.875 -6.125 1 -6.125 L 2.09375 -6.125 C 2.195312 -6.125 2.257812 -6.070312 2.28125 -5.96875 L 2.90625 -1.984375 C 2.914062 -1.953125 2.925781 -1.9375 2.9375 -1.9375 C 2.957031 -1.9375 2.972656 -1.953125 2.984375 -1.984375 L 4.578125 -5.96875 C 4.628906 -6.070312 4.707031 -6.125 4.8125 -6.125 L 5.90625 -6.125 C 6.007812 -6.125 6.0625 -6.082031 6.0625 -6 L 6.03125 -5.90625 L 3.5 -0.15625 C 3.457031 -0.0507812 3.382812 0 3.28125 0 Z M 2.140625 0 "/></g></g></g><g fill="#f7f7f7" fill-opacity="1"><g transform="translate(194.18924, 275.27468)"><g><path d="M 3.28125 -1.078125 C 3.5625 -1.085938 3.816406 -1.148438 4.046875 -1.265625 C 4.285156 -1.378906 4.476562 -1.535156 4.625 -1.734375 C 4.664062 -1.804688 4.722656 -1.84375 4.796875 -1.84375 C 4.828125 -1.84375 4.859375 -1.828125 4.890625 -1.796875 L 5.40625 -1.34375 C 5.445312 -1.289062 5.46875 -1.242188 5.46875 -1.203125 C 5.46875 -1.160156 5.453125 -1.117188 5.421875 -1.078125 C 5.148438 -0.710938 4.804688 -0.425781 4.390625 -0.21875 C 3.972656 -0.0078125 3.515625 0.09375 3.015625 0.09375 C 2.398438 0.09375 1.898438 -0.0507812 1.515625 -0.34375 C 1.140625 -0.644531 0.894531 -1.066406 0.78125 -1.609375 C 0.726562 -1.859375 0.703125 -2.144531 0.703125 -2.46875 C 0.703125 -2.664062 0.710938 -2.875 0.734375 -3.09375 C 0.796875 -3.632812 0.890625 -4.0625 1.015625 -4.375 C 1.222656 -4.9375 1.566406 -5.382812 2.046875 -5.71875 C 2.523438 -6.0625 3.078125 -6.234375 3.703125 -6.234375 C 4.484375 -6.234375 5.050781 -6 5.40625 -5.53125 C 5.757812 -5.070312 5.9375 -4.410156 5.9375 -3.546875 C 5.9375 -3.304688 5.925781 -3.050781 5.90625 -2.78125 C 5.894531 -2.726562 5.867188 -2.679688 5.828125 -2.640625 C 5.796875 -2.609375 5.753906 -2.59375 5.703125 -2.59375 L 2.09375 -2.59375 C 2.050781 -2.59375 2.019531 -2.566406 2 -2.515625 L 1.984375 -2.265625 C 1.984375 -1.898438 2.097656 -1.609375 2.328125 -1.390625 C 2.554688 -1.179688 2.875 -1.078125 3.28125 -1.078125 Z M 3.546875 -5.03125 C 3.242188 -5.03125 2.988281 -4.953125 2.78125 -4.796875 C 2.570312 -4.648438 2.414062 -4.445312 2.3125 -4.1875 C 2.269531 -4.09375 2.21875 -3.925781 2.15625 -3.6875 C 2.144531 -3.632812 2.160156 -3.609375 2.203125 -3.609375 L 4.546875 -3.609375 C 4.597656 -3.609375 4.625 -3.632812 4.625 -3.6875 C 4.625 -3.90625 4.625 -4.046875 4.625 -4.109375 C 4.582031 -4.390625 4.46875 -4.613281 4.28125 -4.78125 C 4.09375 -4.945312 3.847656 -5.03125 3.546875 -5.03125 Z M 3.546875 -5.03125 "/></g></g></g><g fill="#f7f7f7" fill-opacity="1"><g transform="translate(201.053251, 275.27468)"><g><path d="M 0.6875 0 C 0.625 0 0.578125 -0.015625 0.546875 -0.046875 C 0.523438 -0.0859375 0.519531 -0.132812 0.53125 -0.1875 L 1.515625 -8.203125 C 1.523438 -8.335938 1.59375 -8.40625 1.71875 -8.40625 L 2.703125 -8.40625 C 2.753906 -8.40625 2.796875 -8.382812 2.828125 -8.34375 C 2.859375 -8.3125 2.867188 -8.265625 2.859375 -8.203125 L 1.875 -0.1875 C 1.863281 -0.132812 1.835938 -0.0859375 1.796875 -0.046875 C 1.765625 -0.015625 1.722656 0 1.671875 0 Z M 0.6875 0 "/></g></g></g><g fill="#f7f7f7" fill-opacity="1"><g transform="translate(204.437252, 275.27468)"><g><path d="M 3.015625 0.09375 C 2.398438 0.09375 1.890625 -0.0625 1.484375 -0.375 C 1.085938 -0.695312 0.835938 -1.144531 0.734375 -1.71875 C 0.679688 -1.925781 0.65625 -2.160156 0.65625 -2.421875 C 0.65625 -2.578125 0.671875 -2.796875 0.703125 -3.078125 C 0.765625 -3.585938 0.882812 -4.046875 1.0625 -4.453125 C 1.300781 -5.015625 1.660156 -5.453125 2.140625 -5.765625 C 2.628906 -6.078125 3.179688 -6.234375 3.796875 -6.234375 C 4.390625 -6.234375 4.882812 -6.078125 5.28125 -5.765625 C 5.675781 -5.453125 5.925781 -5.019531 6.03125 -4.46875 C 6.082031 -4.238281 6.109375 -3.984375 6.109375 -3.703125 C 6.109375 -3.503906 6.097656 -3.300781 6.078125 -3.09375 C 6.003906 -2.601562 5.882812 -2.148438 5.71875 -1.734375 C 5.46875 -1.160156 5.101562 -0.710938 4.625 -0.390625 C 4.144531 -0.0664062 3.609375 0.09375 3.015625 0.09375 Z M 3.15625 -1.109375 C 3.445312 -1.109375 3.703125 -1.191406 3.921875 -1.359375 C 4.148438 -1.523438 4.328125 -1.757812 4.453125 -2.0625 C 4.578125 -2.320312 4.660156 -2.660156 4.703125 -3.078125 C 4.722656 -3.285156 4.734375 -3.484375 4.734375 -3.671875 C 4.734375 -3.785156 4.726562 -3.921875 4.71875 -4.078125 C 4.65625 -4.378906 4.53125 -4.613281 4.34375 -4.78125 C 4.15625 -4.945312 3.914062 -5.03125 3.625 -5.03125 C 3.332031 -5.03125 3.070312 -4.945312 2.84375 -4.78125 C 2.613281 -4.613281 2.429688 -4.378906 2.296875 -4.078125 C 2.191406 -3.773438 2.113281 -3.441406 2.0625 -3.078125 C 2.039062 -2.867188 2.03125 -2.671875 2.03125 -2.484375 C 2.03125 -2.359375 2.035156 -2.21875 2.046875 -2.0625 C 2.109375 -1.757812 2.234375 -1.523438 2.421875 -1.359375 C 2.617188 -1.191406 2.863281 -1.109375 3.15625 -1.109375 Z M 3.15625 -1.109375 "/></g></g></g><g fill="#f7f7f7" fill-opacity="1"><g transform="translate(211.469262, 275.27468)"><g><path d="M 6.09375 -4.546875 C 6.144531 -4.296875 6.171875 -4.03125 6.171875 -3.75 C 6.171875 -3.5 6.15625 -3.265625 6.125 -3.046875 C 6.0625 -2.484375 5.9375 -1.992188 5.75 -1.578125 C 5.507812 -1.054688 5.179688 -0.644531 4.765625 -0.34375 C 4.347656 -0.0507812 3.851562 0.09375 3.28125 0.09375 C 2.738281 0.09375 2.328125 -0.0976562 2.046875 -0.484375 C 2.023438 -0.515625 2.003906 -0.523438 1.984375 -0.515625 C 1.972656 -0.515625 1.960938 -0.5 1.953125 -0.46875 L 1.640625 2.078125 C 1.628906 2.128906 1.609375 2.171875 1.578125 2.203125 C 1.546875 2.242188 1.492188 2.265625 1.421875 2.265625 L 0.453125 2.265625 C 0.328125 2.265625 0.269531 2.203125 0.28125 2.078125 L 1.265625 -5.9375 C 1.296875 -6.0625 1.367188 -6.125 1.484375 -6.125 L 2.453125 -6.125 C 2.585938 -6.125 2.644531 -6.0625 2.625 -5.9375 L 2.59375 -5.625 C 2.582031 -5.59375 2.585938 -5.570312 2.609375 -5.5625 C 2.628906 -5.5625 2.644531 -5.578125 2.65625 -5.609375 C 3.039062 -6.023438 3.507812 -6.234375 4.0625 -6.234375 C 4.613281 -6.234375 5.0625 -6.082031 5.40625 -5.78125 C 5.757812 -5.476562 5.988281 -5.066406 6.09375 -4.546875 Z M 4.21875 -1.609375 C 4.488281 -1.960938 4.660156 -2.453125 4.734375 -3.078125 C 4.753906 -3.265625 4.765625 -3.4375 4.765625 -3.59375 C 4.765625 -3.9375 4.71875 -4.21875 4.625 -4.4375 C 4.457031 -4.820312 4.148438 -5.015625 3.703125 -5.015625 C 3.316406 -5.015625 2.992188 -4.828125 2.734375 -4.453125 C 2.515625 -4.140625 2.367188 -3.675781 2.296875 -3.0625 C 2.265625 -2.863281 2.25 -2.675781 2.25 -2.5 C 2.25 -2.132812 2.300781 -1.84375 2.40625 -1.625 C 2.570312 -1.28125 2.84375 -1.109375 3.21875 -1.109375 C 3.613281 -1.109375 3.945312 -1.273438 4.21875 -1.609375 Z M 4.21875 -1.609375 "/></g></g></g><g fill="#f7f7f7" fill-opacity="1"><g transform="translate(218.477275, 275.27468)"><g><path d="M 3.28125 -1.078125 C 3.5625 -1.085938 3.816406 -1.148438 4.046875 -1.265625 C 4.285156 -1.378906 4.476562 -1.535156 4.625 -1.734375 C 4.664062 -1.804688 4.722656 -1.84375 4.796875 -1.84375 C 4.828125 -1.84375 4.859375 -1.828125 4.890625 -1.796875 L 5.40625 -1.34375 C 5.445312 -1.289062 5.46875 -1.242188 5.46875 -1.203125 C 5.46875 -1.160156 5.453125 -1.117188 5.421875 -1.078125 C 5.148438 -0.710938 4.804688 -0.425781 4.390625 -0.21875 C 3.972656 -0.0078125 3.515625 0.09375 3.015625 0.09375 C 2.398438 0.09375 1.898438 -0.0507812 1.515625 -0.34375 C 1.140625 -0.644531 0.894531 -1.066406 0.78125 -1.609375 C 0.726562 -1.859375 0.703125 -2.144531 0.703125 -2.46875 C 0.703125 -2.664062 0.710938 -2.875 0.734375 -3.09375 C 0.796875 -3.632812 0.890625 -4.0625 1.015625 -4.375 C 1.222656 -4.9375 1.566406 -5.382812 2.046875 -5.71875 C 2.523438 -6.0625 3.078125 -6.234375 3.703125 -6.234375 C 4.484375 -6.234375 5.050781 -6 5.40625 -5.53125 C 5.757812 -5.070312 5.9375 -4.410156 5.9375 -3.546875 C 5.9375 -3.304688 5.925781 -3.050781 5.90625 -2.78125 C 5.894531 -2.726562 5.867188 -2.679688 5.828125 -2.640625 C 5.796875 -2.609375 5.753906 -2.59375 5.703125 -2.59375 L 2.09375 -2.59375 C 2.050781 -2.59375 2.019531 -2.566406 2 -2.515625 L 1.984375 -2.265625 C 1.984375 -1.898438 2.097656 -1.609375 2.328125 -1.390625 C 2.554688 -1.179688 2.875 -1.078125 3.28125 -1.078125 Z M 3.546875 -5.03125 C 3.242188 -5.03125 2.988281 -4.953125 2.78125 -4.796875 C 2.570312 -4.648438 2.414062 -4.445312 2.3125 -4.1875 C 2.269531 -4.09375 2.21875 -3.925781 2.15625 -3.6875 C 2.144531 -3.632812 2.160156 -3.609375 2.203125 -3.609375 L 4.546875 -3.609375 C 4.597656 -3.609375 4.625 -3.632812 4.625 -3.6875 C 4.625 -3.90625 4.625 -4.046875 4.625 -4.109375 C 4.582031 -4.390625 4.46875 -4.613281 4.28125 -4.78125 C 4.09375 -4.945312 3.847656 -5.03125 3.546875 -5.03125 Z M 3.546875 -5.03125 "/></g></g></g><g fill="#f7f7f7" fill-opacity="1"><g transform="translate(225.341286, 275.27468)"><g><path d="M 4.015625 -6.203125 C 4.253906 -6.203125 4.457031 -6.160156 4.625 -6.078125 C 4.707031 -6.023438 4.726562 -5.941406 4.6875 -5.828125 L 4.390625 -4.84375 C 4.367188 -4.769531 4.335938 -4.722656 4.296875 -4.703125 C 4.265625 -4.691406 4.21875 -4.695312 4.15625 -4.71875 C 4.0625 -4.75 3.941406 -4.765625 3.796875 -4.765625 C 3.691406 -4.765625 3.613281 -4.757812 3.5625 -4.75 C 3.238281 -4.738281 2.953125 -4.617188 2.703125 -4.390625 C 2.460938 -4.171875 2.316406 -3.890625 2.265625 -3.546875 L 1.859375 -0.1875 C 1.847656 -0.132812 1.820312 -0.0859375 1.78125 -0.046875 C 1.75 -0.015625 1.707031 0 1.65625 0 L 0.671875 0 C 0.617188 0 0.578125 -0.015625 0.546875 -0.046875 C 0.515625 -0.0859375 0.503906 -0.132812 0.515625 -0.1875 L 1.21875 -5.9375 C 1.238281 -6.0625 1.304688 -6.125 1.421875 -6.125 L 2.40625 -6.125 C 2.53125 -6.125 2.582031 -6.0625 2.5625 -5.9375 L 2.515625 -5.46875 C 2.515625 -5.4375 2.519531 -5.414062 2.53125 -5.40625 C 2.539062 -5.40625 2.554688 -5.421875 2.578125 -5.453125 C 2.953125 -5.953125 3.429688 -6.203125 4.015625 -6.203125 Z M 4.015625 -6.203125 "/></g></g></g><g fill="#f7f7f7" fill-opacity="1"><g transform="translate(230.273294, 275.27468)"><g><path d="M 2.703125 0.078125 C 2.015625 0.078125 1.46875 -0.0625 1.0625 -0.34375 C 0.65625 -0.632812 0.453125 -1.003906 0.453125 -1.453125 C 0.453125 -1.535156 0.457031 -1.59375 0.46875 -1.625 L 0.484375 -1.6875 C 0.492188 -1.820312 0.5625 -1.890625 0.6875 -1.890625 L 1.625 -1.890625 C 1.675781 -1.890625 1.71875 -1.878906 1.75 -1.859375 C 1.78125 -1.847656 1.789062 -1.828125 1.78125 -1.796875 L 1.78125 -1.71875 C 1.75 -1.519531 1.832031 -1.34375 2.03125 -1.1875 C 2.226562 -1.039062 2.488281 -0.96875 2.8125 -0.96875 C 3.144531 -0.96875 3.414062 -1.039062 3.625 -1.1875 C 3.84375 -1.34375 3.953125 -1.523438 3.953125 -1.734375 C 3.953125 -1.898438 3.878906 -2.023438 3.734375 -2.109375 C 3.585938 -2.191406 3.351562 -2.28125 3.03125 -2.375 L 2.609375 -2.515625 C 2.054688 -2.679688 1.625 -2.878906 1.3125 -3.109375 C 1.007812 -3.347656 0.859375 -3.691406 0.859375 -4.140625 C 0.859375 -4.242188 0.859375 -4.320312 0.859375 -4.375 C 0.929688 -4.9375 1.195312 -5.378906 1.65625 -5.703125 C 2.125 -6.035156 2.707031 -6.203125 3.40625 -6.203125 C 4.0625 -6.203125 4.582031 -6.050781 4.96875 -5.75 C 5.363281 -5.457031 5.5625 -5.070312 5.5625 -4.59375 C 5.5625 -4.5 5.5625 -4.425781 5.5625 -4.375 C 5.539062 -4.28125 5.472656 -4.234375 5.359375 -4.234375 L 4.453125 -4.234375 C 4.328125 -4.234375 4.265625 -4.257812 4.265625 -4.3125 L 4.28125 -4.375 C 4.300781 -4.582031 4.222656 -4.753906 4.046875 -4.890625 C 3.867188 -5.035156 3.609375 -5.109375 3.265625 -5.109375 C 2.960938 -5.109375 2.707031 -5.050781 2.5 -4.9375 C 2.300781 -4.820312 2.1875 -4.660156 2.15625 -4.453125 C 2.132812 -4.253906 2.207031 -4.101562 2.375 -4 C 2.550781 -3.90625 2.835938 -3.800781 3.234375 -3.6875 L 3.484375 -3.609375 C 4.066406 -3.429688 4.519531 -3.226562 4.84375 -3 C 5.164062 -2.769531 5.328125 -2.425781 5.328125 -1.96875 C 5.328125 -1.875 5.320312 -1.800781 5.3125 -1.75 C 5.238281 -1.1875 4.96875 -0.738281 4.5 -0.40625 C 4.03125 -0.0820312 3.429688 0.078125 2.703125 0.078125 Z M 2.703125 0.078125 "/></g></g></g></svg>