<svg xmlns="http://www.w3.org/2000/svg" xmlns:xlink="http://www.w3.org/1999/xlink" width="500" zoomAndPan="magnify" viewBox="0 0 375 374.999991" height="500" preserveAspectRatio="xMidYMid meet" version="1.0"><defs><clipPath id="0cb8aa9436"><path d="M 159 234 L 216 234 L 216 272.507812 L 159 272.507812 Z M 159 234 " clip-rule="nonzero"/></clipPath></defs><path fill="#001719" d="M 180.128906 229.402344 L 166.402344 229.402344 C 161.066406 209.078125 143.957031 202.566406 137.035156 181.886719 C 132.484375 168.261719 132.703125 153.761719 136.992188 141.011719 C 143.980469 152.890625 157.066406 160.292969 170.746094 163.636719 C 182.34375 166.464844 186.257812 174.214844 187.496094 184.824219 C 188.75 174.214844 192.660156 166.460938 204.257812 163.636719 C 217.941406 160.292969 231.023438 152.890625 238.011719 141.011719 C 242.300781 153.761719 242.519531 168.261719 237.964844 181.886719 C 231.042969 202.566406 213.9375 209.078125 208.601562 229.402344 L 194.875 229.402344 C 198.21875 189.414062 223.515625 193.65625 228.171875 168.238281 C 211.765625 195.039062 191.894531 179.515625 187.492188 223.882812 C 183.101562 179.519531 163.234375 195.039062 146.816406 168.238281 C 151.492188 193.65625 176.78125 189.414062 180.128906 229.402344 Z M 180.128906 229.402344 " fill-opacity="1" fill-rule="evenodd"/><g clip-path="url(#0cb8aa9436)"><path fill="#51a0a2" d="M 215.140625 234.53125 L 159.871094 234.53125 L 159.871094 241.726562 C 159.871094 245.683594 163.5625 248.925781 168.070312 248.925781 L 168.175781 248.925781 L 168.175781 256.121094 C 168.175781 262.277344 183.15625 262.285156 188.433594 263.320312 L 177.648438 263.320312 L 177.648438 267.953125 C 177.648438 270.507812 180.027344 272.585938 182.925781 272.585938 L 192.074219 272.585938 C 194.984375 272.585938 197.355469 270.503906 197.355469 267.953125 L 197.355469 263.320312 L 198.640625 263.320312 C 203.148438 263.320312 206.832031 260.078125 206.832031 256.121094 L 206.839844 248.925781 L 195.847656 248.925781 C 201.167969 247.882812 215.140625 248.007812 215.140625 241.726562 Z M 215.140625 234.53125 " fill-opacity="1" fill-rule="evenodd"/></g><path fill="#51a0a2" d="M 166.886719 152.015625 C 172.324219 147.140625 177.65625 135.03125 178.796875 129.433594 C 178.808594 129.351562 178.820312 129.28125 178.84375 129.203125 C 179.464844 125.96875 179.605469 122.070312 178.902344 117.40625 C 178.648438 115.738281 179.789062 114.1875 181.457031 113.945312 C 183.125 113.691406 184.664062 114.832031 184.917969 116.5 C 185.445312 119.9375 185.5625 123.027344 185.386719 125.835938 C 190.8125 124.722656 199.714844 124.03125 204.53125 129.757812 C 205.613281 131.03125 205.449219 132.953125 204.164062 134.023438 C 202.890625 135.105469 200.96875 134.945312 199.898438 133.65625 C 196.367188 129.460938 187.882812 131.3125 184.363281 132.300781 C 182.949219 139.453125 175.003906 152.960938 171.300781 157.410156 C 182.523438 160.570312 187.800781 166.460938 187.800781 166.460938 C 190.066406 163.414062 195.042969 161.480469 200.167969 159.769531 C 200.433594 149.167969 195.695312 145.304688 195.683594 145.292969 C 194.488281 144.28125 194.339844 142.496094 195.351562 141.304688 C 196.367188 140.109375 198.15625 139.957031 199.355469 140.972656 C 199.378906 140.980469 205.46875 145.984375 205.839844 157.917969 C 208.460938 157.042969 211.160156 156.089844 213.820312 154.90625 C 221.375 151.574219 229.457031 145.582031 232.597656 138.410156 C 235.4375 131.957031 230.378906 127.085938 224.878906 125.050781 C 224.707031 124.992188 224.523438 124.910156 224.363281 124.832031 C 222.808594 127.222656 220.382812 129.789062 216.644531 131.476562 C 215.117188 132.164062 213.320312 131.476562 212.632812 129.949219 C 211.945312 128.417969 212.625 126.625 214.148438 125.933594 C 218.3125 124.058594 220 120.648438 220.644531 118.820312 C 220.644531 118.566406 220.667969 118.3125 220.710938 118.050781 C 220.917969 116.453125 220.527344 114.300781 219.835938 112.863281 C 218.273438 109.667969 214.722656 108.460938 211.339844 108.023438 C 211.410156 111.199219 210.753906 115.75 207.339844 119.96875 C 206.292969 121.269531 204.371094 121.464844 203.070312 120.417969 C 201.773438 119.359375 201.566406 117.449219 202.625 116.140625 C 206.121094 111.816406 205.304688 107.066406 205.027344 105.898438 C 204.957031 105.816406 204.886719 105.746094 204.820312 105.667969 C 203.828125 104.609375 202.039062 103.722656 200.679688 103.355469 C 197.046875 102.367188 193.277344 103.632812 190.082031 105.472656 C 192.105469 107.839844 194.257812 111.519531 194.449219 116.523438 C 194.519531 118.203125 193.207031 119.617188 191.539062 119.683594 C 189.863281 119.742188 188.445312 118.441406 188.378906 116.765625 C 188.140625 110.554688 183.53125 107.507812 183.21875 107.300781 C 182.863281 107.195312 182.507812 107.070312 182.164062 106.898438 C 179.632812 105.722656 175.898438 105.160156 173.160156 105.484375 C 166.296875 106.285156 162.984375 112.277344 161.132812 118.324219 C 161.050781 118.566406 160.972656 118.804688 160.867188 119.027344 C 163.777344 121.613281 167.605469 126.660156 165.890625 134.558594 C 165.535156 136.207031 163.914062 137.25 162.269531 136.894531 C 160.636719 136.539062 159.589844 134.925781 159.945312 133.285156 C 163.109375 118.636719 145.03125 119.800781 140.828125 134.113281 C 138.429688 142.320312 158.652344 159.394531 166.886719 152.015625 Z M 166.886719 152.015625 " fill-opacity="1" fill-rule="evenodd"/></svg>