<svg xmlns="http://www.w3.org/2000/svg" xmlns:xlink="http://www.w3.org/1999/xlink" width="500" zoomAndPan="magnify" viewBox="0 0 375 374.999991" height="500" preserveAspectRatio="xMidYMid meet" version="1.0"><defs><g/><clipPath id="7e05315c06"><path d="M 153.121094 120 L 222 120 L 222 176 L 153.121094 176 Z M 153.121094 120 " clip-rule="nonzero"/></clipPath><clipPath id="5c9c65cd81"><path d="M 170 179 L 205 179 L 205 202.921875 L 170 202.921875 Z M 170 179 " clip-rule="nonzero"/></clipPath><clipPath id="a5558e3631"><path d="M 158 96.425781 L 217 96.425781 L 217 137 L 158 137 Z M 158 96.425781 " clip-rule="nonzero"/></clipPath></defs><g clip-path="url(#7e05315c06)"><path fill="#001719" d="M 182.894531 175.871094 L 174.316406 175.871094 C 170.980469 163.167969 160.289062 159.101562 155.964844 146.179688 C 153.121094 137.664062 153.257812 128.605469 155.9375 120.636719 C 160.304688 128.058594 168.480469 132.6875 177.03125 134.777344 C 184.277344 136.542969 186.722656 141.386719 187.496094 148.015625 C 188.28125 141.382812 190.722656 136.542969 197.972656 134.777344 C 206.523438 132.6875 214.695312 128.058594 219.0625 120.636719 C 221.742188 128.605469 221.882812 137.664062 219.035156 146.179688 C 214.707031 159.101562 204.019531 163.167969 200.683594 175.871094 L 192.109375 175.871094 C 194.195312 150.882812 210.003906 153.535156 212.914062 137.648438 C 202.664062 154.398438 190.246094 144.695312 187.496094 172.421875 C 184.75 144.699219 172.335938 154.398438 162.078125 137.648438 C 164.996094 153.535156 180.800781 150.882812 182.894531 175.871094 Z M 182.894531 175.871094 " fill-opacity="1" fill-rule="evenodd"/></g><g clip-path="url(#5c9c65cd81)"><path fill="#51a0a2" d="M 204.769531 179.074219 L 170.234375 179.074219 L 170.234375 183.574219 C 170.234375 186.042969 172.539062 188.070312 175.359375 188.070312 L 175.421875 188.070312 L 175.421875 192.566406 C 175.421875 196.414062 184.785156 196.417969 188.082031 197.066406 L 181.34375 197.066406 L 181.34375 199.960938 C 181.34375 201.558594 182.832031 202.855469 184.640625 202.855469 L 190.359375 202.855469 C 192.175781 202.855469 193.65625 201.554688 193.65625 199.960938 L 193.65625 197.066406 L 194.460938 197.066406 C 197.277344 197.066406 199.578125 195.039062 199.578125 192.566406 L 199.585938 188.070312 L 192.714844 188.070312 C 196.042969 187.417969 204.769531 187.496094 204.769531 183.574219 Z M 204.769531 179.074219 " fill-opacity="1" fill-rule="evenodd"/></g><g clip-path="url(#a5558e3631)"><path fill="#51a0a2" d="M 174.617188 127.511719 C 178.015625 124.46875 181.347656 116.902344 182.0625 113.402344 C 182.066406 113.351562 182.078125 113.308594 182.089844 113.257812 C 182.480469 111.238281 182.566406 108.800781 182.128906 105.886719 C 181.96875 104.84375 182.679688 103.875 183.722656 103.722656 C 184.765625 103.566406 185.726562 104.277344 185.886719 105.320312 C 186.214844 107.46875 186.289062 109.398438 186.179688 111.15625 C 189.570312 110.457031 195.132812 110.027344 198.140625 113.605469 C 198.816406 114.402344 198.714844 115.601562 197.914062 116.269531 C 197.117188 116.949219 195.917969 116.847656 195.246094 116.042969 C 193.039062 113.421875 187.738281 114.574219 185.539062 115.195312 C 184.65625 119.664062 179.691406 128.105469 177.378906 130.886719 C 184.386719 132.859375 187.6875 136.539062 187.6875 136.539062 C 189.101562 134.636719 192.214844 133.429688 195.414062 132.359375 C 195.582031 125.734375 192.621094 123.320312 192.613281 123.3125 C 191.867188 122.679688 191.773438 121.566406 192.40625 120.820312 C 193.039062 120.074219 194.160156 119.976562 194.90625 120.613281 C 194.921875 120.617188 198.726562 123.746094 198.960938 131.203125 C 200.597656 130.65625 202.285156 130.058594 203.945312 129.320312 C 208.667969 127.238281 213.71875 123.496094 215.679688 119.011719 C 217.453125 114.980469 214.292969 111.933594 210.859375 110.664062 C 210.75 110.628906 210.636719 110.578125 210.535156 110.527344 C 209.5625 112.023438 208.046875 113.625 205.710938 114.679688 C 204.757812 115.109375 203.636719 114.679688 203.203125 113.722656 C 202.773438 112.769531 203.199219 111.648438 204.152344 111.214844 C 206.753906 110.042969 207.808594 107.914062 208.210938 106.769531 C 208.210938 106.609375 208.226562 106.453125 208.253906 106.289062 C 208.382812 105.289062 208.140625 103.945312 207.707031 103.046875 C 206.730469 101.050781 204.511719 100.296875 202.398438 100.023438 C 202.441406 102.007812 202.03125 104.851562 199.894531 107.488281 C 199.242188 108.300781 198.042969 108.421875 197.230469 107.769531 C 196.417969 107.105469 196.289062 105.914062 196.949219 105.097656 C 199.136719 102.394531 198.625 99.425781 198.449219 98.695312 C 198.410156 98.644531 198.363281 98.601562 198.320312 98.550781 C 197.703125 97.890625 196.582031 97.335938 195.734375 97.109375 C 193.464844 96.488281 191.109375 97.28125 189.113281 98.429688 C 190.378906 99.910156 191.722656 102.210938 191.84375 105.335938 C 191.886719 106.382812 191.066406 107.269531 190.023438 107.308594 C 188.976562 107.347656 188.089844 106.535156 188.046875 105.484375 C 187.898438 101.605469 185.019531 99.703125 184.824219 99.574219 C 184.601562 99.507812 184.378906 99.429688 184.164062 99.320312 C 182.582031 98.585938 180.25 98.234375 178.539062 98.4375 C 174.25 98.9375 172.179688 102.683594 171.023438 106.460938 C 170.972656 106.609375 170.925781 106.761719 170.859375 106.898438 C 172.675781 108.515625 175.066406 111.671875 173.996094 116.605469 C 173.773438 117.632812 172.761719 118.285156 171.734375 118.0625 C 170.714844 117.84375 170.058594 116.835938 170.28125 115.808594 C 172.257812 106.65625 160.960938 107.382812 158.335938 116.328125 C 156.835938 121.457031 169.472656 132.125 174.617188 127.511719 Z M 174.617188 127.511719 " fill-opacity="1" fill-rule="evenodd"/></g><g fill="#51a0a2" fill-opacity="1"><g transform="translate(89.370446, 254.923034)"><g><path d="M 2.15625 0 C 1.90625 0 1.707031 -0.078125 1.5625 -0.234375 C 1.425781 -0.390625 1.375 -0.59375 1.40625 -0.84375 L 5.265625 -32.046875 C 5.296875 -32.296875 5.394531 -32.5 5.5625 -32.65625 C 5.738281 -32.8125 5.953125 -32.890625 6.203125 -32.890625 L 17.53125 -32.890625 C 20.84375 -32.890625 23.476562 -32.082031 25.4375 -30.46875 C 27.394531 -28.851562 28.375 -26.6875 28.375 -23.96875 C 28.375 -23.6875 28.34375 -23.226562 28.28125 -22.59375 L 26.78125 -10.296875 C 26.53125 -8.253906 25.804688 -6.445312 24.609375 -4.875 C 23.421875 -3.3125 21.863281 -2.109375 19.9375 -1.265625 C 18.019531 -0.421875 15.867188 0 13.484375 0 Z M 9.71875 -7 C 9.71875 -6.78125 9.8125 -6.671875 10 -6.671875 L 14.609375 -6.671875 C 15.828125 -6.671875 16.875 -7.113281 17.75 -8 C 18.632812 -8.894531 19.1875 -10.097656 19.40625 -11.609375 L 20.578125 -21.28125 C 20.609375 -21.5 20.625 -21.796875 20.625 -22.171875 C 20.625 -23.429688 20.296875 -24.421875 19.640625 -25.140625 C 18.984375 -25.859375 18.09375 -26.21875 16.96875 -26.21875 L 12.40625 -26.21875 C 12.34375 -26.21875 12.269531 -26.1875 12.1875 -26.125 C 12.113281 -26.0625 12.078125 -25.984375 12.078125 -25.890625 Z M 9.71875 -7 "/></g></g></g><g fill="#51a0a2" fill-opacity="1"><g transform="translate(117.504691, 254.923034)"><g><path d="M 13.625 -6.25 C 14.59375 -6.25 15.5 -6.394531 16.34375 -6.6875 C 17.195312 -6.988281 17.90625 -7.390625 18.46875 -7.890625 C 18.6875 -8.109375 18.890625 -8.21875 19.078125 -8.21875 C 19.296875 -8.21875 19.46875 -8.109375 19.59375 -7.890625 L 21.984375 -4.421875 C 22.109375 -4.265625 22.171875 -4.078125 22.171875 -3.859375 C 22.171875 -3.671875 22.078125 -3.445312 21.890625 -3.1875 C 20.703125 -2.0625 19.273438 -1.1875 17.609375 -0.5625 C 15.953125 0.0625 14.234375 0.375 12.453125 0.375 C 10.378906 0.375 8.59375 -0.00390625 7.09375 -0.765625 C 5.59375 -1.535156 4.40625 -2.613281 3.53125 -4 C 2.457031 -5.75 1.921875 -7.816406 1.921875 -10.203125 C 1.921875 -10.890625 1.96875 -11.609375 2.0625 -12.359375 C 2.21875 -13.765625 2.5625 -15.171875 3.09375 -16.578125 C 4.039062 -19.023438 5.578125 -20.992188 7.703125 -22.484375 C 9.835938 -23.972656 12.21875 -24.71875 14.84375 -24.71875 C 17.882812 -24.71875 20.21875 -23.742188 21.84375 -21.796875 C 23.476562 -19.859375 24.375 -17.148438 24.53125 -13.671875 C 24.53125 -12.421875 24.5 -11.46875 24.4375 -10.8125 C 24.40625 -10.238281 24.09375 -9.953125 23.5 -9.953125 L 9.71875 -9.953125 C 9.5 -9.953125 9.390625 -9.84375 9.390625 -9.625 C 9.390625 -9.21875 9.4375 -8.890625 9.53125 -8.640625 C 9.75 -7.859375 10.210938 -7.265625 10.921875 -6.859375 C 11.628906 -6.453125 12.53125 -6.25 13.625 -6.25 Z M 13.859375 -18 C 12.359375 -18 11.21875 -17.226562 10.4375 -15.6875 L 10.15625 -14.984375 L 10.109375 -14.84375 C 10.109375 -14.78125 10.144531 -14.722656 10.21875 -14.671875 C 10.300781 -14.628906 10.375 -14.609375 10.4375 -14.609375 L 16.625 -14.609375 C 16.757812 -14.609375 16.859375 -14.644531 16.921875 -14.71875 C 16.984375 -14.800781 17 -14.890625 16.96875 -14.984375 L 16.875 -15.59375 C 16.707031 -16.34375 16.375 -16.929688 15.875 -17.359375 C 15.375 -17.785156 14.703125 -18 13.859375 -18 Z M 13.859375 -18 "/></g></g></g><g fill="#51a0a2" fill-opacity="1"><g transform="translate(142.632939, 254.923034)"><g><path d="M 7.984375 0 C 7.484375 0 7.1875 -0.234375 7.09375 -0.703125 L 2.90625 -23.34375 L 2.90625 -23.546875 C 2.90625 -24.046875 3.175781 -24.296875 3.71875 -24.296875 L 10.25 -24.296875 C 10.46875 -24.296875 10.644531 -24.222656 10.78125 -24.078125 C 10.925781 -23.941406 11.015625 -23.765625 11.046875 -23.546875 L 12.5 -11.046875 C 12.53125 -10.921875 12.582031 -10.859375 12.65625 -10.859375 C 12.738281 -10.859375 12.796875 -10.921875 12.828125 -11.046875 L 17.296875 -23.546875 C 17.359375 -23.765625 17.484375 -23.941406 17.671875 -24.078125 C 17.859375 -24.222656 18.0625 -24.296875 18.28125 -24.296875 L 24.859375 -24.25 C 25.078125 -24.25 25.25 -24.207031 25.375 -24.125 C 25.5 -24.050781 25.5625 -23.9375 25.5625 -23.78125 C 25.5625 -23.65625 25.515625 -23.492188 25.421875 -23.296875 L 15.734375 -0.703125 C 15.515625 -0.234375 15.15625 0 14.65625 0 Z M 7.984375 0 "/></g></g></g><g fill="#51a0a2" fill-opacity="1"><g transform="translate(167.056666, 254.923034)"><g><path d="M 2.203125 0 C 1.953125 0 1.753906 -0.078125 1.609375 -0.234375 C 1.472656 -0.390625 1.421875 -0.59375 1.453125 -0.84375 L 5.3125 -32.046875 C 5.34375 -32.296875 5.441406 -32.5 5.609375 -32.65625 C 5.785156 -32.8125 6 -32.890625 6.25 -32.890625 L 12.125 -32.890625 C 12.5625 -32.890625 12.859375 -32.703125 13.015625 -32.328125 L 17.8125 -22.21875 C 17.9375 -22.03125 18.09375 -22.03125 18.28125 -22.21875 L 25.609375 -32.328125 C 25.859375 -32.703125 26.203125 -32.890625 26.640625 -32.890625 L 32.515625 -32.890625 C 32.765625 -32.890625 32.953125 -32.8125 33.078125 -32.65625 C 33.203125 -32.5 33.25 -32.296875 33.21875 -32.046875 L 29.40625 -0.84375 C 29.375 -0.59375 29.269531 -0.390625 29.09375 -0.234375 C 28.925781 -0.078125 28.71875 0 28.46875 0 L 22.546875 0 C 22.015625 0 21.78125 -0.28125 21.84375 -0.84375 L 24.109375 -19.21875 L 24.109375 -19.3125 C 24.109375 -19.4375 24.066406 -19.5 23.984375 -19.5 C 23.910156 -19.5 23.828125 -19.4375 23.734375 -19.3125 L 19.3125 -13.109375 C 19.0625 -12.734375 18.71875 -12.546875 18.28125 -12.546875 L 15.5 -12.546875 C 15.03125 -12.546875 14.734375 -12.734375 14.609375 -13.109375 L 11.65625 -19.3125 C 11.59375 -19.46875 11.519531 -19.53125 11.4375 -19.5 C 11.363281 -19.46875 11.3125 -19.375 11.28125 -19.21875 L 9.015625 -0.84375 C 8.984375 -0.59375 8.890625 -0.390625 8.734375 -0.234375 C 8.578125 -0.078125 8.375 0 8.125 0 Z M 2.203125 0 "/></g></g></g><g fill="#51a0a2" fill-opacity="1"><g transform="translate(199.559006, 254.923034)"><g><path d="M 8.3125 -25.890625 C 7.125 -25.890625 6.171875 -26.238281 5.453125 -26.9375 C 4.734375 -27.644531 4.375 -28.578125 4.375 -29.734375 C 4.375 -31.210938 4.847656 -32.425781 5.796875 -33.375 C 6.753906 -34.332031 7.96875 -34.8125 9.4375 -34.8125 C 10.664062 -34.8125 11.628906 -34.472656 12.328125 -33.796875 C 13.035156 -33.128906 13.390625 -32.234375 13.390625 -31.109375 C 13.390625 -29.566406 12.910156 -28.3125 11.953125 -27.34375 C 11.003906 -26.375 9.789062 -25.890625 8.3125 -25.890625 Z M 2.203125 0 C 1.953125 0 1.753906 -0.078125 1.609375 -0.234375 C 1.472656 -0.390625 1.421875 -0.59375 1.453125 -0.84375 L 4.234375 -23.4375 C 4.328125 -24.007812 4.640625 -24.296875 5.171875 -24.296875 L 11.09375 -24.296875 C 11.34375 -24.296875 11.53125 -24.21875 11.65625 -24.0625 C 11.78125 -23.90625 11.828125 -23.695312 11.796875 -23.4375 L 9.015625 -0.84375 C 8.984375 -0.59375 8.890625 -0.390625 8.734375 -0.234375 C 8.578125 -0.078125 8.375 0 8.125 0 Z M 2.203125 0 "/></g></g></g><g fill="#51a0a2" fill-opacity="1"><g transform="translate(211.629959, 254.923034)"><g><path d="M 17.34375 -24.671875 C 19.5 -24.671875 21.21875 -24.035156 22.5 -22.765625 C 23.789062 -21.492188 24.4375 -19.734375 24.4375 -17.484375 C 24.4375 -17.203125 24.40625 -16.710938 24.34375 -16.015625 L 22.453125 -0.84375 C 22.421875 -0.59375 22.328125 -0.390625 22.171875 -0.234375 C 22.015625 -0.078125 21.8125 0 21.5625 0 L 15.640625 0 C 15.390625 0 15.191406 -0.078125 15.046875 -0.234375 C 14.910156 -0.390625 14.859375 -0.59375 14.890625 -0.84375 L 16.578125 -14.328125 L 16.625 -14.9375 C 16.625 -15.84375 16.378906 -16.578125 15.890625 -17.140625 C 15.410156 -17.710938 14.75 -18 13.90625 -18 C 13 -18 12.207031 -17.660156 11.53125 -16.984375 C 10.863281 -16.304688 10.46875 -15.421875 10.34375 -14.328125 L 8.6875 -0.84375 C 8.59375 -0.28125 8.28125 0 7.75 0 L 1.828125 0 C 1.578125 0 1.390625 -0.078125 1.265625 -0.234375 C 1.140625 -0.390625 1.09375 -0.59375 1.125 -0.84375 L 3.90625 -23.4375 C 3.9375 -23.695312 4.03125 -23.90625 4.1875 -24.0625 C 4.34375 -24.21875 4.546875 -24.296875 4.796875 -24.296875 L 10.71875 -24.296875 C 10.96875 -24.296875 11.160156 -24.21875 11.296875 -24.0625 C 11.441406 -23.90625 11.5 -23.695312 11.46875 -23.4375 L 11.28125 -22.125 C 11.25 -21.96875 11.269531 -21.875 11.34375 -21.84375 C 11.425781 -21.8125 11.515625 -21.859375 11.609375 -21.984375 C 13.015625 -23.773438 14.925781 -24.671875 17.34375 -24.671875 Z M 17.34375 -24.671875 "/></g></g></g><g fill="#51a0a2" fill-opacity="1"><g transform="translate(236.71124, 254.923034)"><g><path d="M 19.078125 -32.046875 C 19.109375 -32.296875 19.203125 -32.5 19.359375 -32.65625 C 19.515625 -32.8125 19.71875 -32.890625 19.96875 -32.890625 L 25.9375 -32.890625 C 26.1875 -32.890625 26.375 -32.8125 26.5 -32.65625 C 26.625 -32.5 26.671875 -32.296875 26.640625 -32.046875 L 22.78125 -0.84375 C 22.75 -0.59375 22.65625 -0.390625 22.5 -0.234375 C 22.34375 -0.078125 22.140625 0 21.890625 0 L 15.96875 0 C 15.71875 0 15.519531 -0.078125 15.375 -0.234375 C 15.238281 -0.390625 15.1875 -0.59375 15.21875 -0.84375 L 15.359375 -1.96875 C 15.390625 -2.125 15.363281 -2.21875 15.28125 -2.25 C 15.207031 -2.28125 15.125 -2.234375 15.03125 -2.109375 C 13.625 -0.453125 11.789062 0.375 9.53125 0.375 C 7.5625 0.375 5.816406 -0.296875 4.296875 -1.640625 C 2.773438 -2.992188 1.84375 -4.734375 1.5 -6.859375 C 1.34375 -7.859375 1.265625 -8.75 1.265625 -9.53125 C 1.265625 -10.164062 1.328125 -11.078125 1.453125 -12.265625 C 1.703125 -14.390625 2.265625 -16.363281 3.140625 -18.1875 C 4.085938 -20.125 5.410156 -21.695312 7.109375 -22.90625 C 8.816406 -24.113281 10.644531 -24.71875 12.59375 -24.71875 C 14.9375 -24.71875 16.582031 -23.992188 17.53125 -22.546875 C 17.59375 -22.421875 17.671875 -22.375 17.765625 -22.40625 C 17.859375 -22.4375 17.90625 -22.53125 17.90625 -22.6875 Z M 15.3125 -8.265625 C 15.96875 -9.328125 16.390625 -10.613281 16.578125 -12.125 C 16.640625 -12.875 16.671875 -13.390625 16.671875 -13.671875 C 16.671875 -14.703125 16.53125 -15.5625 16.25 -16.25 C 15.75 -17.320312 14.9375 -17.859375 13.8125 -17.859375 C 12.625 -17.859375 11.65625 -17.304688 10.90625 -16.203125 C 10.238281 -15.234375 9.78125 -13.875 9.53125 -12.125 C 9.46875 -11.5 9.4375 -11.0625 9.4375 -10.8125 C 9.4375 -9.800781 9.578125 -8.9375 9.859375 -8.21875 C 10.304688 -7.0625 11.15625 -6.484375 12.40625 -6.484375 C 13.59375 -6.484375 14.5625 -7.078125 15.3125 -8.265625 Z M 15.3125 -8.265625 "/></g></g></g><g fill="#51a0a2" fill-opacity="1"><g transform="translate(262.309177, 254.923034)"><g><path d="M 11 0.375 C 7.957031 0.375 5.566406 -0.21875 3.828125 -1.40625 C 2.085938 -2.59375 1.21875 -4.175781 1.21875 -6.15625 C 1.21875 -6.5 1.234375 -6.765625 1.265625 -6.953125 L 1.3125 -7.1875 C 1.34375 -7.4375 1.4375 -7.640625 1.59375 -7.796875 C 1.75 -7.953125 1.953125 -8.03125 2.203125 -8.03125 L 7.796875 -8.03125 C 8.390625 -8.03125 8.65625 -7.9375 8.59375 -7.75 L 8.546875 -7.46875 C 8.484375 -6.875 8.742188 -6.378906 9.328125 -5.984375 C 9.910156 -5.597656 10.6875 -5.40625 11.65625 -5.40625 C 12.5625 -5.40625 13.285156 -5.566406 13.828125 -5.890625 C 14.378906 -6.222656 14.65625 -6.65625 14.65625 -7.1875 C 14.65625 -7.625 14.40625 -7.953125 13.90625 -8.171875 C 13.40625 -8.390625 12.59375 -8.609375 11.46875 -8.828125 C 9.613281 -9.203125 8.125 -9.660156 7 -10.203125 C 5.6875 -10.796875 4.632812 -11.519531 3.84375 -12.375 C 3.0625 -13.238281 2.671875 -14.375 2.671875 -15.78125 C 2.671875 -16.1875 2.6875 -16.5 2.71875 -16.71875 C 3.03125 -19.164062 4.1875 -21.101562 6.1875 -22.53125 C 8.195312 -23.957031 10.707031 -24.671875 13.71875 -24.671875 C 16.570312 -24.671875 18.832031 -24.019531 20.5 -22.71875 C 22.175781 -21.414062 23.015625 -19.6875 23.015625 -17.53125 C 23.015625 -17.125 23 -16.804688 22.96875 -16.578125 C 22.9375 -16.421875 22.84375 -16.285156 22.6875 -16.171875 C 22.53125 -16.066406 22.328125 -16.015625 22.078125 -16.015625 L 16.625 -16.015625 C 16.09375 -16.015625 15.828125 -16.109375 15.828125 -16.296875 L 15.875 -16.578125 C 15.9375 -17.179688 15.722656 -17.671875 15.234375 -18.046875 C 14.753906 -18.421875 14.046875 -18.609375 13.109375 -18.609375 C 12.203125 -18.609375 11.457031 -18.441406 10.875 -18.109375 C 10.289062 -17.785156 10 -17.34375 10 -16.78125 C 10 -16.269531 10.28125 -15.894531 10.84375 -15.65625 C 11.414062 -15.425781 12.34375 -15.1875 13.625 -14.9375 C 15.125 -14.6875 16.316406 -14.40625 17.203125 -14.09375 C 18.828125 -13.53125 20.082031 -12.785156 20.96875 -11.859375 C 21.863281 -10.941406 22.3125 -9.726562 22.3125 -8.21875 C 22.3125 -7.8125 22.296875 -7.5 22.265625 -7.28125 C 21.953125 -4.84375 20.785156 -2.957031 18.765625 -1.625 C 16.742188 -0.289062 14.15625 0.375 11 0.375 Z M 11 0.375 "/></g></g></g><g fill="#001719" fill-opacity="1"><g transform="translate(147.06368, 273.974689)"><g><path d="M 5.796875 -7 C 5.847656 -7 5.882812 -6.984375 5.90625 -6.953125 C 5.925781 -6.921875 5.9375 -6.882812 5.9375 -6.84375 L 5.84375 -6.15625 C 5.84375 -6.101562 5.828125 -6.0625 5.796875 -6.03125 C 5.765625 -6 5.722656 -5.984375 5.671875 -5.984375 L 3.9375 -5.984375 C 3.90625 -5.984375 3.882812 -5.96875 3.875 -5.9375 L 3.15625 -0.15625 C 3.15625 -0.113281 3.140625 -0.078125 3.109375 -0.046875 C 3.078125 -0.015625 3.035156 0 2.984375 0 L 2.171875 0 C 2.117188 0 2.082031 -0.015625 2.0625 -0.046875 C 2.039062 -0.078125 2.035156 -0.113281 2.046875 -0.15625 L 2.75 -5.9375 C 2.75 -5.96875 2.726562 -5.984375 2.6875 -5.984375 L 1.03125 -5.984375 C 0.925781 -5.984375 0.878906 -6.039062 0.890625 -6.15625 L 0.984375 -6.84375 C 0.992188 -6.945312 1.050781 -7 1.15625 -7 Z M 5.796875 -7 "/></g></g></g><g fill="#001719" fill-opacity="1"><g transform="translate(153.14146, 273.974689)"><g><path d="M 2.734375 -0.90625 C 2.972656 -0.90625 3.1875 -0.953125 3.375 -1.046875 C 3.570312 -1.148438 3.734375 -1.285156 3.859375 -1.453125 C 3.890625 -1.503906 3.9375 -1.53125 4 -1.53125 C 4.03125 -1.53125 4.054688 -1.519531 4.078125 -1.5 L 4.5 -1.125 C 4.539062 -1.082031 4.5625 -1.039062 4.5625 -1 C 4.5625 -0.96875 4.546875 -0.9375 4.515625 -0.90625 C 4.296875 -0.59375 4.007812 -0.347656 3.65625 -0.171875 C 3.3125 -0.00390625 2.929688 0.078125 2.515625 0.078125 C 1.992188 0.078125 1.578125 -0.046875 1.265625 -0.296875 C 0.953125 -0.546875 0.75 -0.894531 0.65625 -1.34375 C 0.601562 -1.550781 0.578125 -1.789062 0.578125 -2.0625 C 0.578125 -2.226562 0.585938 -2.398438 0.609375 -2.578125 C 0.660156 -3.035156 0.738281 -3.390625 0.84375 -3.640625 C 1.019531 -4.109375 1.304688 -4.484375 1.703125 -4.765625 C 2.109375 -5.046875 2.566406 -5.1875 3.078125 -5.1875 C 3.734375 -5.1875 4.207031 -4.992188 4.5 -4.609375 C 4.800781 -4.222656 4.953125 -3.671875 4.953125 -2.953125 C 4.953125 -2.753906 4.941406 -2.539062 4.921875 -2.3125 C 4.910156 -2.269531 4.890625 -2.234375 4.859375 -2.203125 C 4.828125 -2.171875 4.789062 -2.15625 4.75 -2.15625 L 1.734375 -2.15625 C 1.703125 -2.15625 1.679688 -2.132812 1.671875 -2.09375 L 1.65625 -1.890625 C 1.65625 -1.585938 1.75 -1.347656 1.9375 -1.171875 C 2.132812 -0.992188 2.398438 -0.90625 2.734375 -0.90625 Z M 2.953125 -4.1875 C 2.703125 -4.1875 2.488281 -4.125 2.3125 -4 C 2.144531 -3.875 2.019531 -3.703125 1.9375 -3.484375 C 1.894531 -3.410156 1.847656 -3.269531 1.796875 -3.0625 C 1.796875 -3.03125 1.8125 -3.015625 1.84375 -3.015625 L 3.796875 -3.015625 C 3.828125 -3.015625 3.847656 -3.03125 3.859375 -3.0625 C 3.859375 -3.25 3.851562 -3.375 3.84375 -3.4375 C 3.8125 -3.664062 3.71875 -3.847656 3.5625 -3.984375 C 3.40625 -4.117188 3.203125 -4.1875 2.953125 -4.1875 Z M 2.953125 -4.1875 "/></g></g></g><g fill="#001719" fill-opacity="1"><g transform="translate(158.859393, 273.974689)"><g><path d="M 4.015625 -4.953125 C 4.023438 -4.992188 4.046875 -5.03125 4.078125 -5.0625 C 4.109375 -5.09375 4.148438 -5.109375 4.203125 -5.109375 L 5.015625 -5.109375 C 5.117188 -5.109375 5.164062 -5.054688 5.15625 -4.953125 L 4.5625 -0.15625 C 4.550781 -0.113281 4.53125 -0.078125 4.5 -0.046875 C 4.46875 -0.015625 4.425781 0 4.375 0 L 3.5625 0 C 3.457031 0 3.414062 -0.0507812 3.4375 -0.15625 L 3.453125 -0.40625 C 3.460938 -0.425781 3.457031 -0.4375 3.4375 -0.4375 C 3.425781 -0.445312 3.414062 -0.445312 3.40625 -0.4375 C 3.082031 -0.09375 2.691406 0.078125 2.234375 0.078125 C 1.785156 0.078125 1.414062 -0.046875 1.125 -0.296875 C 0.832031 -0.546875 0.640625 -0.882812 0.546875 -1.3125 C 0.503906 -1.53125 0.484375 -1.753906 0.484375 -1.984375 C 0.484375 -2.191406 0.5 -2.382812 0.53125 -2.5625 C 0.582031 -3.03125 0.6875 -3.441406 0.84375 -3.796875 C 1.039062 -4.234375 1.3125 -4.570312 1.65625 -4.8125 C 2.007812 -5.0625 2.421875 -5.1875 2.890625 -5.1875 C 3.328125 -5.1875 3.675781 -5.03125 3.9375 -4.71875 C 3.945312 -4.695312 3.957031 -4.6875 3.96875 -4.6875 C 3.976562 -4.695312 3.988281 -4.710938 4 -4.734375 Z M 3.34375 -1.40625 C 3.53125 -1.664062 3.65625 -2.050781 3.71875 -2.5625 C 3.738281 -2.726562 3.75 -2.882812 3.75 -3.03125 C 3.75 -3.332031 3.707031 -3.570312 3.625 -3.75 C 3.488281 -4.039062 3.265625 -4.1875 2.953125 -4.1875 C 2.617188 -4.1875 2.34375 -4.046875 2.125 -3.765625 C 1.894531 -3.460938 1.75 -3.054688 1.6875 -2.546875 C 1.664062 -2.390625 1.65625 -2.242188 1.65625 -2.109375 C 1.65625 -1.835938 1.695312 -1.601562 1.78125 -1.40625 C 1.914062 -1.09375 2.171875 -0.9375 2.546875 -0.9375 C 2.859375 -0.9375 3.125 -1.09375 3.34375 -1.40625 Z M 3.34375 -1.40625 "/></g></g></g><g fill="#001719" fill-opacity="1"><g transform="translate(164.657286, 273.974689)"><g><path d="M 6.34375 -5.1875 C 6.789062 -5.1875 7.132812 -5.0625 7.375 -4.8125 C 7.625 -4.5625 7.75 -4.207031 7.75 -3.75 C 7.75 -3.6875 7.742188 -3.582031 7.734375 -3.4375 L 7.3125 -0.15625 C 7.300781 -0.0507812 7.25 0 7.15625 0 L 6.34375 0 C 6.289062 0 6.253906 -0.015625 6.234375 -0.046875 C 6.210938 -0.078125 6.203125 -0.113281 6.203125 -0.15625 L 6.578125 -3.1875 C 6.585938 -3.226562 6.59375 -3.289062 6.59375 -3.375 C 6.59375 -3.625 6.523438 -3.820312 6.390625 -3.96875 C 6.253906 -4.113281 6.066406 -4.1875 5.828125 -4.1875 C 5.566406 -4.1875 5.335938 -4.097656 5.140625 -3.921875 C 4.953125 -3.742188 4.84375 -3.503906 4.8125 -3.203125 L 4.4375 -0.15625 C 4.414062 -0.0507812 4.359375 0 4.265625 0 L 3.453125 0 C 3.398438 0 3.363281 -0.015625 3.34375 -0.046875 C 3.320312 -0.078125 3.3125 -0.113281 3.3125 -0.15625 L 3.6875 -3.1875 C 3.695312 -3.226562 3.703125 -3.285156 3.703125 -3.359375 C 3.703125 -3.609375 3.632812 -3.804688 3.5 -3.953125 C 3.363281 -4.109375 3.175781 -4.1875 2.9375 -4.1875 C 2.6875 -4.1875 2.472656 -4.113281 2.296875 -3.96875 C 2.128906 -3.820312 2.015625 -3.625 1.953125 -3.375 L 1.546875 -0.15625 C 1.546875 -0.113281 1.53125 -0.078125 1.5 -0.046875 C 1.46875 -0.015625 1.425781 0 1.375 0 L 0.5625 0 C 0.507812 0 0.472656 -0.015625 0.453125 -0.046875 C 0.429688 -0.078125 0.425781 -0.113281 0.4375 -0.15625 L 1.015625 -4.953125 C 1.035156 -5.054688 1.09375 -5.109375 1.1875 -5.109375 L 2 -5.109375 C 2.101562 -5.109375 2.148438 -5.054688 2.140625 -4.953125 L 2.109375 -4.6875 C 2.097656 -4.65625 2.101562 -4.632812 2.125 -4.625 C 2.144531 -4.625 2.160156 -4.632812 2.171875 -4.65625 C 2.492188 -5.007812 2.921875 -5.1875 3.453125 -5.1875 C 3.773438 -5.1875 4.046875 -5.117188 4.265625 -4.984375 C 4.484375 -4.859375 4.640625 -4.671875 4.734375 -4.421875 C 4.753906 -4.398438 4.769531 -4.390625 4.78125 -4.390625 C 4.800781 -4.390625 4.8125 -4.40625 4.8125 -4.4375 C 5 -4.6875 5.222656 -4.875 5.484375 -5 C 5.753906 -5.125 6.039062 -5.1875 6.34375 -5.1875 Z M 6.34375 -5.1875 "/></g></g></g><g fill="#001719" fill-opacity="1"><g transform="translate(173.154119, 273.974689)"><g/></g></g><g fill="#001719" fill-opacity="1"><g transform="translate(175.553355, 273.974689)"><g><path d="M 0.671875 0 C 0.566406 0 0.519531 -0.0507812 0.53125 -0.15625 L 1.34375 -6.84375 C 1.363281 -6.945312 1.425781 -7 1.53125 -7 L 3.859375 -7 C 4.492188 -7 5 -6.84375 5.375 -6.53125 C 5.75 -6.21875 5.9375 -5.789062 5.9375 -5.25 C 5.9375 -5.1875 5.925781 -5.085938 5.90625 -4.953125 L 5.5625 -2.046875 C 5.476562 -1.421875 5.203125 -0.921875 4.734375 -0.546875 C 4.273438 -0.179688 3.695312 0 3 0 Z M 1.765625 -1.0625 C 1.765625 -1.019531 1.78125 -1 1.8125 -1 L 3.171875 -1 C 3.515625 -1 3.800781 -1.109375 4.03125 -1.328125 C 4.257812 -1.554688 4.398438 -1.859375 4.453125 -2.234375 L 4.765625 -4.765625 C 4.773438 -4.804688 4.78125 -4.875 4.78125 -4.96875 C 4.78125 -5.289062 4.6875 -5.539062 4.5 -5.71875 C 4.320312 -5.90625 4.078125 -6 3.765625 -6 L 2.4375 -6 C 2.394531 -6 2.375 -5.976562 2.375 -5.9375 Z M 1.765625 -1.0625 "/></g></g></g><g fill="#001719" fill-opacity="1"><g transform="translate(182.000996, 273.974689)"><g><path d="M 2.734375 -0.90625 C 2.972656 -0.90625 3.1875 -0.953125 3.375 -1.046875 C 3.570312 -1.148438 3.734375 -1.285156 3.859375 -1.453125 C 3.890625 -1.503906 3.9375 -1.53125 4 -1.53125 C 4.03125 -1.53125 4.054688 -1.519531 4.078125 -1.5 L 4.5 -1.125 C 4.539062 -1.082031 4.5625 -1.039062 4.5625 -1 C 4.5625 -0.96875 4.546875 -0.9375 4.515625 -0.90625 C 4.296875 -0.59375 4.007812 -0.347656 3.65625 -0.171875 C 3.3125 -0.00390625 2.929688 0.078125 2.515625 0.078125 C 1.992188 0.078125 1.578125 -0.046875 1.265625 -0.296875 C 0.953125 -0.546875 0.75 -0.894531 0.65625 -1.34375 C 0.601562 -1.550781 0.578125 -1.789062 0.578125 -2.0625 C 0.578125 -2.226562 0.585938 -2.398438 0.609375 -2.578125 C 0.660156 -3.035156 0.738281 -3.390625 0.84375 -3.640625 C 1.019531 -4.109375 1.304688 -4.484375 1.703125 -4.765625 C 2.109375 -5.046875 2.566406 -5.1875 3.078125 -5.1875 C 3.734375 -5.1875 4.207031 -4.992188 4.5 -4.609375 C 4.800781 -4.222656 4.953125 -3.671875 4.953125 -2.953125 C 4.953125 -2.753906 4.941406 -2.539062 4.921875 -2.3125 C 4.910156 -2.269531 4.890625 -2.234375 4.859375 -2.203125 C 4.828125 -2.171875 4.789062 -2.15625 4.75 -2.15625 L 1.734375 -2.15625 C 1.703125 -2.15625 1.679688 -2.132812 1.671875 -2.09375 L 1.65625 -1.890625 C 1.65625 -1.585938 1.75 -1.347656 1.9375 -1.171875 C 2.132812 -0.992188 2.398438 -0.90625 2.734375 -0.90625 Z M 2.953125 -4.1875 C 2.703125 -4.1875 2.488281 -4.125 2.3125 -4 C 2.144531 -3.875 2.019531 -3.703125 1.9375 -3.484375 C 1.894531 -3.410156 1.847656 -3.269531 1.796875 -3.0625 C 1.796875 -3.03125 1.8125 -3.015625 1.84375 -3.015625 L 3.796875 -3.015625 C 3.828125 -3.015625 3.847656 -3.03125 3.859375 -3.0625 C 3.859375 -3.25 3.851562 -3.375 3.84375 -3.4375 C 3.8125 -3.664062 3.71875 -3.847656 3.5625 -3.984375 C 3.40625 -4.117188 3.203125 -4.1875 2.953125 -4.1875 Z M 2.953125 -4.1875 "/></g></g></g><g fill="#001719" fill-opacity="1"><g transform="translate(187.718928, 273.974689)"><g><path d="M 1.78125 0 C 1.6875 0 1.632812 -0.0390625 1.625 -0.125 L 0.6875 -4.9375 L 0.6875 -4.96875 C 0.6875 -5.0625 0.734375 -5.109375 0.828125 -5.109375 L 1.734375 -5.109375 C 1.828125 -5.109375 1.882812 -5.066406 1.90625 -4.984375 L 2.421875 -1.65625 C 2.429688 -1.632812 2.441406 -1.625 2.453125 -1.625 C 2.472656 -1.625 2.484375 -1.632812 2.484375 -1.65625 L 3.8125 -4.96875 C 3.851562 -5.0625 3.921875 -5.109375 4.015625 -5.109375 L 4.921875 -5.09375 C 5.003906 -5.09375 5.046875 -5.0625 5.046875 -5 L 5.03125 -4.921875 L 2.921875 -0.125 C 2.878906 -0.0390625 2.816406 0 2.734375 0 Z M 1.78125 0 "/></g></g></g><g fill="#001719" fill-opacity="1"><g transform="translate(193.066997, 273.974689)"><g><path d="M 2.734375 -0.90625 C 2.972656 -0.90625 3.1875 -0.953125 3.375 -1.046875 C 3.570312 -1.148438 3.734375 -1.285156 3.859375 -1.453125 C 3.890625 -1.503906 3.9375 -1.53125 4 -1.53125 C 4.03125 -1.53125 4.054688 -1.519531 4.078125 -1.5 L 4.5 -1.125 C 4.539062 -1.082031 4.5625 -1.039062 4.5625 -1 C 4.5625 -0.96875 4.546875 -0.9375 4.515625 -0.90625 C 4.296875 -0.59375 4.007812 -0.347656 3.65625 -0.171875 C 3.3125 -0.00390625 2.929688 0.078125 2.515625 0.078125 C 1.992188 0.078125 1.578125 -0.046875 1.265625 -0.296875 C 0.953125 -0.546875 0.75 -0.894531 0.65625 -1.34375 C 0.601562 -1.550781 0.578125 -1.789062 0.578125 -2.0625 C 0.578125 -2.226562 0.585938 -2.398438 0.609375 -2.578125 C 0.660156 -3.035156 0.738281 -3.390625 0.84375 -3.640625 C 1.019531 -4.109375 1.304688 -4.484375 1.703125 -4.765625 C 2.109375 -5.046875 2.566406 -5.1875 3.078125 -5.1875 C 3.734375 -5.1875 4.207031 -4.992188 4.5 -4.609375 C 4.800781 -4.222656 4.953125 -3.671875 4.953125 -2.953125 C 4.953125 -2.753906 4.941406 -2.539062 4.921875 -2.3125 C 4.910156 -2.269531 4.890625 -2.234375 4.859375 -2.203125 C 4.828125 -2.171875 4.789062 -2.15625 4.75 -2.15625 L 1.734375 -2.15625 C 1.703125 -2.15625 1.679688 -2.132812 1.671875 -2.09375 L 1.65625 -1.890625 C 1.65625 -1.585938 1.75 -1.347656 1.9375 -1.171875 C 2.132812 -0.992188 2.398438 -0.90625 2.734375 -0.90625 Z M 2.953125 -4.1875 C 2.703125 -4.1875 2.488281 -4.125 2.3125 -4 C 2.144531 -3.875 2.019531 -3.703125 1.9375 -3.484375 C 1.894531 -3.410156 1.847656 -3.269531 1.796875 -3.0625 C 1.796875 -3.03125 1.8125 -3.015625 1.84375 -3.015625 L 3.796875 -3.015625 C 3.828125 -3.015625 3.847656 -3.03125 3.859375 -3.0625 C 3.859375 -3.25 3.851562 -3.375 3.84375 -3.4375 C 3.8125 -3.664062 3.71875 -3.847656 3.5625 -3.984375 C 3.40625 -4.117188 3.203125 -4.1875 2.953125 -4.1875 Z M 2.953125 -4.1875 "/></g></g></g><g fill="#001719" fill-opacity="1"><g transform="translate(198.784929, 273.974689)"><g><path d="M 0.5625 0 C 0.519531 0 0.488281 -0.015625 0.46875 -0.046875 C 0.445312 -0.078125 0.4375 -0.113281 0.4375 -0.15625 L 1.265625 -6.84375 C 1.273438 -6.945312 1.332031 -7 1.4375 -7 L 2.25 -7 C 2.289062 -7 2.320312 -6.984375 2.34375 -6.953125 C 2.375 -6.921875 2.382812 -6.882812 2.375 -6.84375 L 1.5625 -0.15625 C 1.550781 -0.113281 1.53125 -0.078125 1.5 -0.046875 C 1.46875 -0.015625 1.429688 0 1.390625 0 Z M 0.5625 0 "/></g></g></g><g fill="#001719" fill-opacity="1"><g transform="translate(201.604003, 273.974689)"><g><path d="M 2.515625 0.078125 C 2.003906 0.078125 1.578125 -0.0507812 1.234375 -0.3125 C 0.898438 -0.582031 0.691406 -0.957031 0.609375 -1.4375 C 0.566406 -1.601562 0.546875 -1.796875 0.546875 -2.015625 C 0.546875 -2.140625 0.5625 -2.320312 0.59375 -2.5625 C 0.644531 -2.988281 0.738281 -3.367188 0.875 -3.703125 C 1.082031 -4.171875 1.382812 -4.535156 1.78125 -4.796875 C 2.1875 -5.054688 2.648438 -5.1875 3.171875 -5.1875 C 3.660156 -5.1875 4.066406 -5.054688 4.390625 -4.796875 C 4.722656 -4.535156 4.9375 -4.175781 5.03125 -3.71875 C 5.070312 -3.53125 5.09375 -3.316406 5.09375 -3.078125 C 5.09375 -2.921875 5.082031 -2.753906 5.0625 -2.578125 C 5.007812 -2.160156 4.910156 -1.78125 4.765625 -1.4375 C 4.554688 -0.96875 4.253906 -0.597656 3.859375 -0.328125 C 3.460938 -0.0546875 3.015625 0.078125 2.515625 0.078125 Z M 2.625 -0.921875 C 2.863281 -0.921875 3.078125 -0.988281 3.265625 -1.125 C 3.460938 -1.269531 3.609375 -1.46875 3.703125 -1.71875 C 3.816406 -1.9375 3.890625 -2.21875 3.921875 -2.5625 C 3.941406 -2.738281 3.953125 -2.90625 3.953125 -3.0625 C 3.953125 -3.15625 3.945312 -3.269531 3.9375 -3.40625 C 3.882812 -3.65625 3.78125 -3.847656 3.625 -3.984375 C 3.46875 -4.117188 3.265625 -4.1875 3.015625 -4.1875 C 2.773438 -4.1875 2.554688 -4.117188 2.359375 -3.984375 C 2.171875 -3.847656 2.023438 -3.65625 1.921875 -3.40625 C 1.828125 -3.144531 1.757812 -2.863281 1.71875 -2.5625 C 1.695312 -2.394531 1.6875 -2.226562 1.6875 -2.0625 C 1.6875 -1.96875 1.691406 -1.851562 1.703125 -1.71875 C 1.753906 -1.46875 1.859375 -1.269531 2.015625 -1.125 C 2.179688 -0.988281 2.382812 -0.921875 2.625 -0.921875 Z M 2.625 -0.921875 "/></g></g></g><g fill="#001719" fill-opacity="1"><g transform="translate(207.461873, 273.974689)"><g><path d="M 5.078125 -3.796875 C 5.117188 -3.585938 5.140625 -3.363281 5.140625 -3.125 C 5.140625 -2.914062 5.125 -2.722656 5.09375 -2.546875 C 5.039062 -2.078125 4.941406 -1.664062 4.796875 -1.3125 C 4.585938 -0.875 4.3125 -0.53125 3.96875 -0.28125 C 3.625 -0.0390625 3.210938 0.078125 2.734375 0.078125 C 2.285156 0.078125 1.941406 -0.0820312 1.703125 -0.40625 C 1.691406 -0.425781 1.675781 -0.4375 1.65625 -0.4375 C 1.644531 -0.4375 1.632812 -0.421875 1.625 -0.390625 L 1.375 1.734375 C 1.363281 1.773438 1.34375 1.8125 1.3125 1.84375 C 1.28125 1.875 1.238281 1.890625 1.1875 1.890625 L 0.375 1.890625 C 0.269531 1.890625 0.222656 1.835938 0.234375 1.734375 L 1.0625 -4.953125 C 1.082031 -5.054688 1.140625 -5.109375 1.234375 -5.109375 L 2.046875 -5.109375 C 2.148438 -5.109375 2.195312 -5.054688 2.1875 -4.953125 L 2.15625 -4.6875 C 2.15625 -4.664062 2.160156 -4.648438 2.171875 -4.640625 C 2.191406 -4.628906 2.207031 -4.640625 2.21875 -4.671875 C 2.53125 -5.015625 2.921875 -5.1875 3.390625 -5.1875 C 3.835938 -5.1875 4.207031 -5.0625 4.5 -4.8125 C 4.800781 -4.5625 4.992188 -4.222656 5.078125 -3.796875 Z M 3.515625 -1.34375 C 3.734375 -1.644531 3.875 -2.050781 3.9375 -2.5625 C 3.957031 -2.71875 3.96875 -2.863281 3.96875 -3 C 3.96875 -3.28125 3.925781 -3.515625 3.84375 -3.703125 C 3.71875 -4.023438 3.46875 -4.1875 3.09375 -4.1875 C 2.769531 -4.1875 2.5 -4.023438 2.28125 -3.703125 C 2.101562 -3.441406 1.976562 -3.054688 1.90625 -2.546875 C 1.882812 -2.378906 1.875 -2.222656 1.875 -2.078125 C 1.875 -1.773438 1.921875 -1.535156 2.015625 -1.359375 C 2.140625 -1.066406 2.363281 -0.921875 2.6875 -0.921875 C 3.019531 -0.921875 3.296875 -1.0625 3.515625 -1.34375 Z M 3.515625 -1.34375 "/></g></g></g><g fill="#001719" fill-opacity="1"><g transform="translate(213.29975, 273.974689)"><g><path d="M 2.734375 -0.90625 C 2.972656 -0.90625 3.1875 -0.953125 3.375 -1.046875 C 3.570312 -1.148438 3.734375 -1.285156 3.859375 -1.453125 C 3.890625 -1.503906 3.9375 -1.53125 4 -1.53125 C 4.03125 -1.53125 4.054688 -1.519531 4.078125 -1.5 L 4.5 -1.125 C 4.539062 -1.082031 4.5625 -1.039062 4.5625 -1 C 4.5625 -0.96875 4.546875 -0.9375 4.515625 -0.90625 C 4.296875 -0.59375 4.007812 -0.347656 3.65625 -0.171875 C 3.3125 -0.00390625 2.929688 0.078125 2.515625 0.078125 C 1.992188 0.078125 1.578125 -0.046875 1.265625 -0.296875 C 0.953125 -0.546875 0.75 -0.894531 0.65625 -1.34375 C 0.601562 -1.550781 0.578125 -1.789062 0.578125 -2.0625 C 0.578125 -2.226562 0.585938 -2.398438 0.609375 -2.578125 C 0.660156 -3.035156 0.738281 -3.390625 0.84375 -3.640625 C 1.019531 -4.109375 1.304688 -4.484375 1.703125 -4.765625 C 2.109375 -5.046875 2.566406 -5.1875 3.078125 -5.1875 C 3.734375 -5.1875 4.207031 -4.992188 4.5 -4.609375 C 4.800781 -4.222656 4.953125 -3.671875 4.953125 -2.953125 C 4.953125 -2.753906 4.941406 -2.539062 4.921875 -2.3125 C 4.910156 -2.269531 4.890625 -2.234375 4.859375 -2.203125 C 4.828125 -2.171875 4.789062 -2.15625 4.75 -2.15625 L 1.734375 -2.15625 C 1.703125 -2.15625 1.679688 -2.132812 1.671875 -2.09375 L 1.65625 -1.890625 C 1.65625 -1.585938 1.75 -1.347656 1.9375 -1.171875 C 2.132812 -0.992188 2.398438 -0.90625 2.734375 -0.90625 Z M 2.953125 -4.1875 C 2.703125 -4.1875 2.488281 -4.125 2.3125 -4 C 2.144531 -3.875 2.019531 -3.703125 1.9375 -3.484375 C 1.894531 -3.410156 1.847656 -3.269531 1.796875 -3.0625 C 1.796875 -3.03125 1.8125 -3.015625 1.84375 -3.015625 L 3.796875 -3.015625 C 3.828125 -3.015625 3.847656 -3.03125 3.859375 -3.0625 C 3.859375 -3.25 3.851562 -3.375 3.84375 -3.4375 C 3.8125 -3.664062 3.71875 -3.847656 3.5625 -3.984375 C 3.40625 -4.117188 3.203125 -4.1875 2.953125 -4.1875 Z M 2.953125 -4.1875 "/></g></g></g><g fill="#001719" fill-opacity="1"><g transform="translate(219.017681, 273.974689)"><g><path d="M 3.34375 -5.171875 C 3.550781 -5.171875 3.71875 -5.132812 3.84375 -5.0625 C 3.914062 -5.019531 3.9375 -4.953125 3.90625 -4.859375 L 3.65625 -4.03125 C 3.632812 -3.976562 3.609375 -3.941406 3.578125 -3.921875 C 3.554688 -3.910156 3.515625 -3.914062 3.453125 -3.9375 C 3.378906 -3.957031 3.28125 -3.96875 3.15625 -3.96875 C 3.082031 -3.96875 3.019531 -3.960938 2.96875 -3.953125 C 2.695312 -3.941406 2.457031 -3.84375 2.25 -3.65625 C 2.050781 -3.476562 1.929688 -3.242188 1.890625 -2.953125 L 1.546875 -0.15625 C 1.546875 -0.113281 1.53125 -0.078125 1.5 -0.046875 C 1.46875 -0.015625 1.425781 0 1.375 0 L 0.5625 0 C 0.507812 0 0.472656 -0.015625 0.453125 -0.046875 C 0.429688 -0.078125 0.425781 -0.113281 0.4375 -0.15625 L 1.015625 -4.953125 C 1.035156 -5.054688 1.09375 -5.109375 1.1875 -5.109375 L 2 -5.109375 C 2.101562 -5.109375 2.148438 -5.054688 2.140625 -4.953125 L 2.09375 -4.5625 C 2.09375 -4.53125 2.097656 -4.507812 2.109375 -4.5 C 2.117188 -4.5 2.132812 -4.515625 2.15625 -4.546875 C 2.46875 -4.960938 2.863281 -5.171875 3.34375 -5.171875 Z M 3.34375 -5.171875 "/></g></g></g><g fill="#001719" fill-opacity="1"><g transform="translate(223.126241, 273.974689)"><g><path d="M 2.25 0.0625 C 1.675781 0.0625 1.21875 -0.0546875 0.875 -0.296875 C 0.539062 -0.535156 0.375 -0.835938 0.375 -1.203125 C 0.375 -1.273438 0.378906 -1.328125 0.390625 -1.359375 L 0.40625 -1.40625 C 0.414062 -1.507812 0.46875 -1.5625 0.5625 -1.5625 L 1.34375 -1.5625 C 1.394531 -1.5625 1.429688 -1.554688 1.453125 -1.546875 C 1.484375 -1.535156 1.492188 -1.519531 1.484375 -1.5 L 1.484375 -1.4375 C 1.460938 -1.269531 1.53125 -1.125 1.6875 -1 C 1.851562 -0.875 2.070312 -0.8125 2.34375 -0.8125 C 2.625 -0.8125 2.851562 -0.875 3.03125 -1 C 3.207031 -1.125 3.296875 -1.273438 3.296875 -1.453125 C 3.296875 -1.585938 3.234375 -1.6875 3.109375 -1.75 C 2.992188 -1.820312 2.800781 -1.898438 2.53125 -1.984375 L 2.171875 -2.09375 C 1.710938 -2.238281 1.351562 -2.40625 1.09375 -2.59375 C 0.832031 -2.789062 0.703125 -3.078125 0.703125 -3.453125 C 0.703125 -3.535156 0.707031 -3.597656 0.71875 -3.640625 C 0.78125 -4.109375 1.003906 -4.476562 1.390625 -4.75 C 1.773438 -5.03125 2.257812 -5.171875 2.84375 -5.171875 C 3.382812 -5.171875 3.816406 -5.046875 4.140625 -4.796875 C 4.472656 -4.554688 4.640625 -4.234375 4.640625 -3.828125 C 4.640625 -3.742188 4.632812 -3.6875 4.625 -3.65625 C 4.613281 -3.570312 4.554688 -3.53125 4.453125 -3.53125 L 3.703125 -3.53125 C 3.609375 -3.53125 3.5625 -3.550781 3.5625 -3.59375 L 3.5625 -3.65625 C 3.582031 -3.820312 3.519531 -3.960938 3.375 -4.078125 C 3.226562 -4.203125 3.007812 -4.265625 2.71875 -4.265625 C 2.46875 -4.265625 2.257812 -4.210938 2.09375 -4.109375 C 1.925781 -4.015625 1.828125 -3.878906 1.796875 -3.703125 C 1.773438 -3.546875 1.835938 -3.425781 1.984375 -3.34375 C 2.128906 -3.257812 2.367188 -3.164062 2.703125 -3.0625 L 2.90625 -3.015625 C 3.382812 -2.867188 3.757812 -2.695312 4.03125 -2.5 C 4.300781 -2.3125 4.4375 -2.023438 4.4375 -1.640625 C 4.4375 -1.554688 4.4375 -1.492188 4.4375 -1.453125 C 4.375 -0.984375 4.144531 -0.613281 3.75 -0.34375 C 3.351562 -0.0703125 2.851562 0.0625 2.25 0.0625 Z M 2.25 0.0625 "/></g></g></g></svg>